<?xml version="1.0" encoding="utf-8"?>
<!-- Generator: Adobe Illustrator 17.1.0, SVG Export Plug-In . SVG Version: 6.00 Build 0)  -->
<!DOCTYPE svg PUBLIC "-//W3C//DTD SVG 1.1//EN" "http://www.w3.org/Graphics/SVG/1.1/DTD/svg11.dtd">
<svg version="1.1" xmlns="http://www.w3.org/2000/svg" xmlns:xlink="http://www.w3.org/1999/xlink" x="0px" y="0px"
	 viewBox="0 0 1320 720" enable-background="new 0 0 1320 720" xml:space="preserve">
<g id="BACKGROUND">
	<rect x="1.2" fill="#D6F2F6" width="1318.6" height="736.7"/>
	<g id="XMLID_482_">
		<g>
			<g>
				<g id="XMLID_644_">
					<defs>
						<path id="XMLID_645_" d="M327.8,404.9c99.6-0.9,199.2-0.9,298.8,0c25.8,20.2,51.5,40.4,77,60.6c-150.9-2-301.9-2-452.8,0
							C276.4,445.3,302,425.1,327.8,404.9z"/>
					</defs>
					<clipPath id="XMLID_13_">
						<use xlink:href="#XMLID_645_"  overflow="visible"/>
					</clipPath>
				</g>
			</g>
			<g>
				<g id="XMLID_642_">
					<defs>
						<path id="XMLID_643_" d="M327.8,404.9c99.6-0.9,199.2-0.9,298.8,0c25.8,20.2,51.5,40.4,77,60.6c-150.9-2-301.9-2-452.8,0
							C276.4,445.3,302,425.1,327.8,404.9z"/>
					</defs>
					<clipPath id="XMLID_19_">
						<use xlink:href="#XMLID_643_"  overflow="visible"/>
					</clipPath>
				</g>
			</g>
			<g>
				<g id="XMLID_640_">
					<defs>
						<path id="XMLID_641_" d="M327.8,404.9c99.6-0.9,199.2-0.9,298.8,0c25.8,20.2,51.5,40.4,77,60.6c-150.9-2-301.9-2-452.8,0
							C276.4,445.3,302,425.1,327.8,404.9z"/>
					</defs>
					<clipPath id="XMLID_20_">
						<use xlink:href="#XMLID_641_"  overflow="visible"/>
					</clipPath>
				</g>
			</g>
		</g>
		<g>
			<g>
				<g id="XMLID_638_">
					<defs>
						<path id="XMLID_639_" d="M327.8,404.9c99.6-0.9,199.2-0.9,298.8,0c25.8,20.2,51.5,40.4,77,60.6c-150.9-2-301.9-2-452.8,0
							C276.4,445.3,302,425.1,327.8,404.9z"/>
					</defs>
					<clipPath id="XMLID_21_">
						<use xlink:href="#XMLID_639_"  overflow="visible"/>
					</clipPath>
				</g>
			</g>
			<g>
				<path id="XMLID_637_" fill-rule="evenodd" clip-rule="evenodd" fill="#F18F42" d="M294.9,582.8c121.5-1.3,243-1.3,364.5,0
					c0.6-42.8,1.2-85.5,1.8-128.3c-122.7-1.3-245.4-1.3-368.1,0C293.7,497.3,294.3,540,294.9,582.8z"/>
				<path id="XMLID_636_" fill-rule="evenodd" clip-rule="evenodd" fill="#EF8244" d="M293.5,479.1c122.5-1.3,245-1.3,367.4,0
					c0-0.9,0-1.7,0-2.6c-122.5-1.3-245-1.3-367.5,0C293.5,477.3,293.5,478.2,293.5,479.1z"/>
				<path id="XMLID_635_" fill-rule="evenodd" clip-rule="evenodd" fill="#B5675A" d="M250.8,465.6c20.2-12.1,40.5-24.2,60.9-36.2
					c108.8-1.1,217.6-1.1,326.3,0c21.9,12,43.8,24.1,65.6,36.2c-0.1,3.8-0.1,7.6-0.2,11.4c-150.8-2-301.6-2-452.4,0
					C250.9,473.2,250.9,469.4,250.8,465.6z"/>
				<g id="XMLID_381_">
					<path id="XMLID_634_" fill-rule="evenodd" clip-rule="evenodd" fill="#F07B44" d="M422.2,273.2c12.1-3.2,24.3-6.3,36.5-9.4
						c0,6.6,0,13.2,0,19.8c-12.1,3.1-24.3,6.3-36.4,9.4c3.6-4.1,7.1-8.2,10.7-12.2C429.4,278.2,425.8,275.7,422.2,273.2z"/>
					<path id="XMLID_633_" fill-rule="evenodd" clip-rule="evenodd" fill="#DC6A46" d="M458.6,271.7c-1.1,0.4-16.8,8.5-16.8,8.5
						c5.6,1.1,11.2,2.2,16.8,3.3C458.7,279.6,458.7,275.7,458.6,271.7z"/>
					<path id="XMLID_632_" fill-rule="evenodd" clip-rule="evenodd" fill="#F08243" d="M441.8,260.5c12.2-3.1,24.3-6.3,36.5-9.4
						c0,6.6,0,13.2,0,19.8c-12.2,3.1-24.3,6.2-36.5,9.4C441.9,273.7,441.9,267.1,441.8,260.5z"/>
					<path id="XMLID_472_" fill-rule="evenodd" clip-rule="evenodd" fill="#696A68" d="M476,285c0.8,0,1.6,0,2.4,0
						c0-11.9,0-23.9,0-35.8c-0.8,0-1.6,0-2.4,0C476,261.2,476,273.1,476,285z"/>
					<path id="XMLID_418_" fill-rule="evenodd" clip-rule="evenodd" fill="#F5A466" d="M431.8,320c15.1-11.7,30.2-23.3,45.4-34.9
						c15.2,11.6,30.3,23.2,45.4,34.9c-0.1,35.4-0.2,70.7-0.3,106.1c-30-0.1-60.1-0.1-90.1,0C432,390.7,431.9,355.3,431.8,320z"/>
					<path id="XMLID_403_" fill-rule="evenodd" clip-rule="evenodd" fill="#F18F42" d="M431.8,320c15.1-11.7,30.2-23.3,45.4-34.9
						c15.2,11.6,30.3,23.2,45.4,34.9c0,1.1,0,2.2,0,3.3c-5.1-3.9-10.2-7.8-15.4-11.7c-10-7.6-20-15.2-30-22.8
						c-10,7.6-20,15.2-30,22.8c-5.1,3.9-10.2,7.8-15.4,11.7C431.8,322.2,431.8,321.1,431.8,320z"/>
					<path id="XMLID_402_" fill-rule="evenodd" clip-rule="evenodd" fill="#B5675A" d="M477.2,278.1c10,7.6,20.1,15.2,30.1,22.8
						c10,7.6,20,15.2,30,22.8c-3.7,0-7.4,0-11.1,0c-6.3-4.8-12.6-9.6-18.9-14.4c-10-7.6-20-15.2-30-22.8c-10,7.6-20,15.2-30,22.8
						c-6.3,4.8-12.6,9.6-18.9,14.4c-3.7,0-7.4,0-11.1,0c10-7.6,20-15.2,30-22.9C457.1,293.3,467.1,285.7,477.2,278.1z"/>
					<path id="XMLID_401_" fill-rule="evenodd" clip-rule="evenodd" fill="#828789" d="M478.5,368.2c16.7,0,30.3-11.7,30.3-26.1
						c0-14.4-13.6-26.2-30.3-26.2c-16.7,0-30.4,11.8-30.3,26.2C448.2,356.4,461.8,368.2,478.5,368.2z"/>
					<path id="XMLID_400_" fill-rule="evenodd" clip-rule="evenodd" fill="#5E5F5F" d="M478.5,365.6c15.1,0,27.4-10.6,27.4-23.6
						c0-13-12.3-23.6-27.4-23.6c-15.1,0-27.4,10.6-27.4,23.6C451.1,355,463.4,365.6,478.5,365.6z"/>
					<path id="XMLID_399_" fill-rule="evenodd" clip-rule="evenodd" fill="#EFE9EA" d="M478.5,364.3c14.2,0,25.8-10,25.8-22.2
						c0-12.3-11.6-22.3-25.8-22.3c-14.2,0-25.8,10-25.8,22.3C452.7,354.3,464.3,364.3,478.5,364.3z"/>
					<path id="XMLID_398_" fill-rule="evenodd" clip-rule="evenodd" fill="#5B4F49" d="M478.5,326.3c0.3,2.6,0.6,5.1,1,7.7
						c0.3,2.6,0.6,5.1,1,7.7c-0.6,0-1.3,0-1.9,0c-0.6,0-1.3,0-1.9,0c0.3-2.6,0.6-5.1,1-7.7C477.8,331.5,478.2,328.9,478.5,326.3z"/>
					<path id="XMLID_397_" fill-rule="evenodd" clip-rule="evenodd" fill="#5B4F49" d="M465.9,348.4c2-1.3,4-2.5,5.9-3.8
						c2-1.3,4-2.5,5.9-3.8c0.3,0.4,0.5,0.8,0.8,1.2c0.3,0.4,0.5,0.8,0.8,1.2c-2.2,0.9-4.5,1.7-6.7,2.6
						C470.4,346.7,468.1,347.6,465.9,348.4z"/>
					<path id="XMLID_396_" fill-rule="evenodd" clip-rule="evenodd" fill="#DFD7D7" d="M478.5,344.5c-1.6,0-2.9-1.1-2.9-2.5
						c0-1.4,1.3-2.5,2.9-2.5c1.6,0,2.9,1.1,2.9,2.5C481.4,343.4,480.1,344.5,478.5,344.5z"/>
					<path id="XMLID_395_" fill-rule="evenodd" clip-rule="evenodd" fill="#5E5F5F" d="M478.5,344.1c1.3,0,2.4-0.9,2.4-2.1
						c0-1.1-1.1-2.1-2.4-2.1c-1.3,0-2.4,0.9-2.4,2.1C476.1,343.1,477.2,344.1,478.5,344.1z"/>
					<path id="XMLID_394_" fill-rule="evenodd" clip-rule="evenodd" fill="#746864" d="M477.8,323.2c0.5,0,0.9,0,1.4,0
						c0-1,0-1.9,0-2.9c-0.2,0-0.5,0-0.7,0c-0.2,0-0.5,0-0.7,0C477.8,321.2,477.8,322.2,477.8,323.2z"/>
					<path id="XMLID_393_" fill-rule="evenodd" clip-rule="evenodd" fill="#746864" d="M490.5,322.9c-0.6,0.8-1.1,1.7-1.7,2.5
						c0.4,0.2,0.8,0.4,1.2,0.6c0.6-0.8,1.1-1.7,1.7-2.5C491.3,323.3,490.9,323.1,490.5,322.9z"/>
					<path id="XMLID_392_" fill-rule="evenodd" clip-rule="evenodd" fill="#746864" d="M500,330.6c-1,0.5-1.9,1-2.9,1.4
						c0.2,0.3,0.5,0.7,0.7,1c1-0.5,1.9-1,2.9-1.4C500.5,331.3,500.3,331,500,330.6z"/>
					<path id="XMLID_391_" fill-rule="evenodd" clip-rule="evenodd" fill="#746864" d="M503.7,341.4c-1.1,0-2.2,0-3.4,0
						c0,0.4,0,0.8,0,1.2c1.1,0,2.2,0,3.4,0c0-0.2,0-0.4,0-0.6C503.7,341.8,503.7,341.6,503.7,341.4z"/>
					<path id="XMLID_390_" fill-rule="evenodd" clip-rule="evenodd" fill="#746864" d="M500.7,352.4c-1-0.5-1.9-1-2.9-1.5
						c-0.2,0.3-0.5,0.7-0.7,1c1,0.5,1.9,1,2.9,1.5C500.2,353.1,500.5,352.7,500.7,352.4z"/>
					<path id="XMLID_389_" fill-rule="evenodd" clip-rule="evenodd" fill="#746864" d="M491.7,360.6c-0.6-0.8-1.1-1.7-1.7-2.5
						c-0.4,0.2-0.8,0.4-1.2,0.6c0.6,0.8,1.1,1.7,1.7,2.5C490.9,361,491.3,360.8,491.7,360.6z"/>
					<path id="XMLID_388_" fill-rule="evenodd" clip-rule="evenodd" fill="#746864" d="M479.2,363.8c0-1,0-1.9,0-2.9
						c-0.5,0-0.9,0-1.4,0c0,1,0,1.9,0,2.9c0.2,0,0.5,0,0.7,0C478.7,363.8,479,363.8,479.2,363.8z"/>
					<path id="XMLID_387_" fill-rule="evenodd" clip-rule="evenodd" fill="#746864" d="M466.5,361.2c0.6-0.8,1.1-1.7,1.7-2.5
						c-0.4-0.2-0.8-0.4-1.2-0.6c-0.6,0.8-1.1,1.7-1.7,2.5C465.7,360.8,466.1,361,466.5,361.2z"/>
					<path id="XMLID_386_" fill-rule="evenodd" clip-rule="evenodd" fill="#746864" d="M457,353.4c1-0.5,1.9-1,2.9-1.5
						c-0.2-0.3-0.5-0.7-0.7-1c-1,0.5-1.9,1-2.9,1.5C456.5,352.7,456.8,353.1,457,353.4z"/>
					<path id="XMLID_385_" fill-rule="evenodd" clip-rule="evenodd" fill="#746864" d="M453.3,342.6c1.1,0,2.2,0,3.4,0
						c0-0.4,0-0.8,0-1.2c-1.1,0-2.2,0-3.4,0c0,0.2,0,0.4,0,0.6C453.2,342.2,453.2,342.4,453.3,342.6z"/>
					<path id="XMLID_384_" fill-rule="evenodd" clip-rule="evenodd" fill="#746864" d="M456.3,331.7c1,0.5,1.9,1,2.9,1.4
						c0.2-0.3,0.5-0.7,0.7-1c-1-0.5-1.9-1-2.9-1.4C456.7,331,456.5,331.3,456.3,331.7z"/>
					<path id="XMLID_383_" fill-rule="evenodd" clip-rule="evenodd" fill="#746864" d="M465.3,323.5c0.6,0.8,1.1,1.7,1.7,2.5
						c0.4-0.2,0.8-0.4,1.2-0.6c-0.6-0.8-1.1-1.7-1.7-2.5C466,323.1,465.6,323.3,465.3,323.5z"/>
					<path id="XMLID_382_" fill-rule="evenodd" clip-rule="evenodd" fill="#F7B0A0" d="M477.2,250.8c2.5,0,4.6-1.8,4.6-4
						c0-2.2-2.1-4-4.6-4c-2.5,0-4.6,1.8-4.6,4C472.5,249.1,474.6,250.8,477.2,250.8z"/>
				</g>
				<path id="XMLID_380_" fill-rule="evenodd" clip-rule="evenodd" fill="#B5675A" d="M329.9,405.7c98.2-0.9,196.4-0.9,294.6,0
					c1.8,0,3.2-1.2,3.3-2.7c0-1.3,0-2.7,0-4c0-1.5-1.4-2.8-3.2-2.8c-98.3-0.8-196.5-0.8-294.8,0c-1.8,0-3.2,1.3-3.2,2.8
					c0,1.3,0,2.7,0,4C326.6,404.5,328.1,405.7,329.9,405.7z"/>
				<path id="XMLID_379_" fill-rule="evenodd" clip-rule="evenodd" fill="#D37754" d="M327.8,404.9c99.6-0.9,199.2-0.9,298.8,0
					c25.8,20.2,51.5,40.4,77,60.6c-150.9-2-301.9-2-452.8,0C276.4,445.3,302,425.1,327.8,404.9z"/>
				<g id="XMLID_201_">
					<defs>
						<path id="XMLID_202_" d="M327.8,404.9c99.6-0.9,199.2-0.9,298.8,0c25.8,20.2,51.5,40.4,77,60.6c-150.9-2-301.9-2-452.8,0
							C276.4,445.3,302,425.1,327.8,404.9z"/>
					</defs>
					<clipPath id="XMLID_22_">
						<use xlink:href="#XMLID_202_"  overflow="visible"/>
					</clipPath>
					<g id="XMLID_203_" clip-path="url(#XMLID_22_)">
						<g id="XMLID_354_">
							<path id="XMLID_378_" fill-rule="evenodd" clip-rule="evenodd" fill="#D88364" d="M260.8,405.7c0.1,0.5,0.1,1,0.2,1.5
								c0.1,5.1-4,9.2-9.1,9.3c-5.1,0.1-9.4-4-9.5-9.1c0-0.5,0-1,0.1-1.5C248.5,405.8,254.6,405.7,260.8,405.7z"/>
							<path id="XMLID_377_" fill-rule="evenodd" clip-rule="evenodd" fill="#D88364" d="M280.1,405.4c0.1,0.5,0.1,1,0.2,1.5
								c0.1,5.1-4,9.2-9.2,9.3c-5.1,0.1-9.4-4-9.4-9.1c0-0.5,0-1,0.1-1.5C267.9,405.6,274,405.5,280.1,405.4z"/>
							<path id="XMLID_376_" fill-rule="evenodd" clip-rule="evenodd" fill="#D88364" d="M299.5,405.2c0.1,0.5,0.1,1,0.1,1.5
								c0.1,5.1-4,9.2-9.2,9.3c-5.1,0.1-9.4-4-9.4-9.1c0-0.5,0-1,0.1-1.5C287.2,405.3,293.4,405.3,299.5,405.2z"/>
							<path id="XMLID_375_" fill-rule="evenodd" clip-rule="evenodd" fill="#D88364" d="M318.8,405c0.1,0.5,0.1,1,0.1,1.5
								c0.1,5.1-4,9.2-9.2,9.3c-5.1,0.1-9.3-4-9.4-9.1c0-0.5,0-1,0.1-1.5C306.6,405.1,312.7,405.1,318.8,405z"/>
							<path id="XMLID_374_" fill-rule="evenodd" clip-rule="evenodd" fill="#D88364" d="M338.2,404.9c0.1,0.5,0.1,1,0.1,1.5
								c0.1,5.1-4.1,9.2-9.2,9.3c-5.1,0-9.3-4-9.4-9.1c0-0.5,0-1,0.1-1.5C326,405,332.1,404.9,338.2,404.9z"/>
							<path id="XMLID_373_" fill-rule="evenodd" clip-rule="evenodd" fill="#D88364" d="M357.5,404.7c0.1,0.5,0.1,1,0.1,1.5
								c0,5.1-4.1,9.2-9.2,9.2c-5.1,0-9.3-4-9.4-9.1c0-0.5,0-1,0.1-1.5C345.3,404.8,351.4,404.7,357.5,404.7z"/>
							<path id="XMLID_372_" fill-rule="evenodd" clip-rule="evenodd" fill="#D88364" d="M376.9,404.6c0.1,0.5,0.1,1,0.1,1.5
								c0,5.1-4.1,9.2-9.2,9.2c-5.1,0-9.3-4-9.4-9.1c0-0.5,0-1,0.1-1.5C364.7,404.7,370.8,404.6,376.9,404.6z"/>
							<path id="XMLID_371_" fill-rule="evenodd" clip-rule="evenodd" fill="#D88364" d="M396.2,404.5c0.1,0.5,0.1,1,0.1,1.5
								c0,5.1-4.1,9.2-9.2,9.2c-5.1,0-9.3-4.1-9.4-9.1c0-0.5,0-1,0.1-1.5C384,404.5,390.1,404.5,396.2,404.5z"/>
							<path id="XMLID_370_" fill-rule="evenodd" clip-rule="evenodd" fill="#D88364" d="M415.6,404.4c0.1,0.5,0.1,1,0.1,1.5
								c0,5.1-4.1,9.2-9.2,9.2c-5.1,0-9.3-4.1-9.3-9.1c0-0.5,0-1,0.1-1.5C403.4,404.4,409.5,404.4,415.6,404.4z"/>
							<path id="XMLID_369_" fill-rule="evenodd" clip-rule="evenodd" fill="#D88364" d="M435,404.3c0.1,0.5,0.1,1,0.1,1.5
								c0,5.1-4.1,9.2-9.3,9.2c-5.1,0-9.3-4.1-9.3-9.1c0-0.5,0-1,0.1-1.5C422.7,404.4,428.8,404.3,435,404.3z"/>
							<path id="XMLID_368_" fill-rule="evenodd" clip-rule="evenodd" fill="#D88364" d="M454.3,404.3c0.1,0.5,0.1,1,0.1,1.5
								c0,5.1-4.1,9.2-9.3,9.2c-5.1,0-9.3-4.1-9.3-9.2c0-0.5,0-1,0.1-1.5C442.1,404.3,448.2,404.3,454.3,404.3z"/>
							<path id="XMLID_367_" fill-rule="evenodd" clip-rule="evenodd" fill="#D88364" d="M473.7,404.3c0.1,0.5,0.1,1,0.1,1.5
								c0,5.1-4.2,9.2-9.3,9.2c-5.1,0-9.3-4.1-9.3-9.2c0-0.5,0-1,0.1-1.5C461.4,404.3,467.6,404.3,473.7,404.3z"/>
							<path id="XMLID_366_" fill-rule="evenodd" clip-rule="evenodd" fill="#D88364" d="M493,404.3c0.1,0.5,0.1,1,0.1,1.5
								c0,5.1-4.2,9.2-9.3,9.2c-5.1,0-9.3-4.1-9.3-9.2c0-0.5,0-1,0.1-1.5C480.8,404.3,486.9,404.3,493,404.3z"/>
							<path id="XMLID_365_" fill-rule="evenodd" clip-rule="evenodd" fill="#D88364" d="M512.4,404.3c0.1,0.5,0.1,1,0.1,1.5
								c0,5.1-4.2,9.2-9.3,9.2c-5.1,0-9.3-4.1-9.3-9.2c0-0.5,0-1,0.1-1.5C500.2,404.3,506.3,404.3,512.4,404.3z"/>
							<path id="XMLID_364_" fill-rule="evenodd" clip-rule="evenodd" fill="#D88364" d="M531.7,404.4c0.1,0.5,0.1,1,0.1,1.5
								c0,5.1-4.2,9.2-9.3,9.2c-5.1,0-9.3-4.1-9.3-9.2c0-0.5,0-1,0.1-1.5C519.5,404.3,525.6,404.3,531.7,404.4z"/>
							<path id="XMLID_363_" fill-rule="evenodd" clip-rule="evenodd" fill="#D88364" d="M551.1,404.4c0.1,0.5,0.1,1,0.1,1.5
								c0,5.1-4.2,9.2-9.3,9.1c-5.1,0-9.3-4.1-9.3-9.2c0-0.5,0-1,0.1-1.5C538.9,404.4,545,404.4,551.1,404.4z"/>
							<path id="XMLID_362_" fill-rule="evenodd" clip-rule="evenodd" fill="#D88364" d="M570.4,404.5c0.1,0.5,0.1,1,0.1,1.5
								c0,5.1-4.2,9.2-9.4,9.1c-5.1,0-9.3-4.2-9.2-9.2c0-0.5,0.1-1,0.1-1.5C558.2,404.5,564.3,404.5,570.4,404.5z"/>
							<path id="XMLID_361_" fill-rule="evenodd" clip-rule="evenodd" fill="#D88364" d="M589.8,404.6c0.1,0.5,0.1,1,0.1,1.5
								c0,5.1-4.2,9.2-9.4,9.1c-5.1,0-9.3-4.2-9.2-9.2c0-0.5,0.1-1,0.1-1.5C577.6,404.6,583.7,404.6,589.8,404.6z"/>
							<path id="XMLID_360_" fill-rule="evenodd" clip-rule="evenodd" fill="#D88364" d="M609.2,404.8c0.1,0.5,0.1,1,0.1,1.5
								c-0.1,5.1-4.3,9.1-9.4,9.1c-5.1,0-9.3-4.2-9.2-9.2c0-0.5,0.1-1,0.1-1.5C596.9,404.7,603,404.7,609.2,404.8z"/>
							<path id="XMLID_359_" fill-rule="evenodd" clip-rule="evenodd" fill="#D88364" d="M628.5,404.9c0.1,0.5,0.1,1,0.1,1.5
								c-0.1,5.1-4.3,9.1-9.4,9.1c-5.1,0-9.2-4.2-9.2-9.3c0-0.5,0.1-1,0.1-1.5C616.3,404.8,622.4,404.9,628.5,404.9z"/>
							<path id="XMLID_358_" fill-rule="evenodd" clip-rule="evenodd" fill="#D88364" d="M647.9,405.1c0.1,0.5,0.1,1,0.1,1.5
								c-0.1,5.1-4.3,9.1-9.4,9.1c-5.1,0-9.2-4.2-9.2-9.3c0-0.5,0.1-1,0.1-1.5C635.6,405,641.8,405.1,647.9,405.1z"/>
							<path id="XMLID_357_" fill-rule="evenodd" clip-rule="evenodd" fill="#D88364" d="M667.2,405.3c0.1,0.5,0.1,1,0.1,1.5
								c-0.1,5.1-4.3,9.1-9.4,9.1c-5.1-0.1-9.2-4.2-9.2-9.3c0-0.5,0.1-1,0.1-1.5C655,405.2,661.1,405.2,667.2,405.3z"/>
							<path id="XMLID_356_" fill-rule="evenodd" clip-rule="evenodd" fill="#D88364" d="M686.6,405.5c0.1,0.5,0.1,1,0.1,1.5
								c-0.1,5.1-4.3,9.1-9.4,9.1c-5.1-0.1-9.2-4.2-9.2-9.3c0-0.5,0.1-1,0.2-1.5C674.4,405.4,680.5,405.5,686.6,405.5z"/>
							<path id="XMLID_355_" fill-rule="evenodd" clip-rule="evenodd" fill="#D88364" d="M705.9,405.8c0.1,0.5,0.1,1,0.1,1.5
								c-0.1,5.1-4.3,9.1-9.4,9.1c-5.1-0.1-9.2-4.2-9.1-9.3c0-0.5,0.1-1,0.2-1.5C693.7,405.6,699.8,405.7,705.9,405.8z"/>
						</g>
						<g id="XMLID_329_">
							<path id="XMLID_353_" fill-rule="evenodd" clip-rule="evenodd" fill="#D88364" d="M270.1,417.5c0.1,0.5,0.1,1,0.2,1.5
								c0.1,5.1-4,9.2-9.1,9.3c-5.1,0.1-9.4-4-9.4-9.1c0-0.5,0-1,0.1-1.5C257.8,417.6,263.9,417.6,270.1,417.5z"/>
							<path id="XMLID_352_" fill-rule="evenodd" clip-rule="evenodd" fill="#D88364" d="M289.4,417.3c0.1,0.5,0.1,1,0.2,1.5
								c0.1,5.1-4,9.2-9.2,9.3c-5.1,0.1-9.3-4-9.4-9.1c0-0.5,0-1,0.1-1.5C277.2,417.4,283.3,417.3,289.4,417.3z"/>
							<path id="XMLID_351_" fill-rule="evenodd" clip-rule="evenodd" fill="#D88364" d="M308.7,417.1c0.1,0.5,0.1,1,0.1,1.5
								c0.1,5.1-4,9.2-9.2,9.3c-5.1,0.1-9.3-4-9.4-9.1c0-0.5,0-1,0.1-1.5C296.5,417.2,302.6,417.1,308.7,417.1z"/>
							<path id="XMLID_350_" fill-rule="evenodd" clip-rule="evenodd" fill="#D88364" d="M328.1,416.9c0.1,0.5,0.1,1,0.1,1.5
								c0.1,5.1-4.1,9.2-9.2,9.3c-5.1,0-9.3-4-9.4-9.1c0-0.5,0-1,0.1-1.5C315.8,417,322,416.9,328.1,416.9z"/>
							<path id="XMLID_349_" fill-rule="evenodd" clip-rule="evenodd" fill="#D88364" d="M347.4,416.7c0.1,0.5,0.1,1,0.1,1.5
								c0,5.1-4.1,9.2-9.2,9.3c-5.1,0-9.3-4-9.4-9.1c0-0.5,0-1,0.1-1.5C335.2,416.8,341.3,416.8,347.4,416.7z"/>
							<path id="XMLID_348_" fill-rule="evenodd" clip-rule="evenodd" fill="#D88364" d="M366.7,416.6c0.1,0.5,0.1,1,0.1,1.5
								c0,5.1-4.1,9.2-9.2,9.2c-5.1,0-9.3-4-9.4-9.1c0-0.5,0-1,0.1-1.5C354.5,416.7,360.6,416.6,366.7,416.6z"/>
							<path id="XMLID_347_" fill-rule="evenodd" clip-rule="evenodd" fill="#D88364" d="M386.1,416.5c0.1,0.5,0.1,1,0.1,1.5
								c0,5.1-4.1,9.2-9.2,9.2c-5.1,0-9.3-4.1-9.4-9.1c0-0.5,0-1,0.1-1.5C373.9,416.5,380,416.5,386.1,416.5z"/>
							<path id="XMLID_346_" fill-rule="evenodd" clip-rule="evenodd" fill="#D88364" d="M405.4,416.4c0.1,0.5,0.1,1,0.1,1.5
								c0,5.1-4.1,9.2-9.2,9.2c-5.1,0-9.3-4.1-9.3-9.1c0-0.5,0-1,0.1-1.5C393.2,416.4,399.3,416.4,405.4,416.4z"/>
							<path id="XMLID_345_" fill-rule="evenodd" clip-rule="evenodd" fill="#D88364" d="M424.8,416.3c0.1,0.5,0.1,1,0.1,1.5
								c0,5.1-4.1,9.2-9.2,9.2c-5.1,0-9.3-4.1-9.3-9.1c0-0.5,0-1,0.1-1.5C412.5,416.3,418.6,416.3,424.8,416.3z"/>
							<path id="XMLID_344_" fill-rule="evenodd" clip-rule="evenodd" fill="#D88364" d="M444.1,416.2c0.1,0.5,0.1,1,0.1,1.5
								c0,5.1-4.1,9.2-9.3,9.2c-5.1,0-9.3-4.1-9.3-9.2c0-0.5,0-1,0.1-1.5C431.9,416.3,438,416.3,444.1,416.2z"/>
							<path id="XMLID_343_" fill-rule="evenodd" clip-rule="evenodd" fill="#D88364" d="M463.4,416.2c0.1,0.5,0.1,1,0.1,1.5
								c0,5.1-4.1,9.2-9.3,9.2c-5.1,0-9.3-4.1-9.3-9.2c0-0.5,0-1,0.1-1.5C451.2,416.2,457.3,416.2,463.4,416.2z"/>
							<path id="XMLID_342_" fill-rule="evenodd" clip-rule="evenodd" fill="#D88364" d="M482.8,416.2c0.1,0.5,0.1,1,0.1,1.5
								c0,5.1-4.2,9.2-9.3,9.2c-5.1,0-9.3-4.1-9.3-9.2c0-0.5,0-1,0.1-1.5C470.6,416.2,476.7,416.2,482.8,416.2z"/>
							<path id="XMLID_341_" fill-rule="evenodd" clip-rule="evenodd" fill="#D88364" d="M502.1,416.2c0.1,0.5,0.1,1,0.1,1.5
								c0,5.1-4.2,9.2-9.3,9.2c-5.1,0-9.3-4.1-9.3-9.2c0-0.5,0-1,0.1-1.5C489.9,416.2,496,416.2,502.1,416.2z"/>
							<path id="XMLID_340_" fill-rule="evenodd" clip-rule="evenodd" fill="#D88364" d="M521.4,416.3c0.1,0.5,0.1,1,0.1,1.5
								c0,5.1-4.2,9.2-9.3,9.2c-5.1,0-9.3-4.1-9.3-9.2c0-0.5,0-1,0.1-1.5C509.2,416.2,515.3,416.3,521.4,416.3z"/>
							<path id="XMLID_339_" fill-rule="evenodd" clip-rule="evenodd" fill="#D88364" d="M540.8,416.3c0.1,0.5,0.1,1,0.1,1.5
								c0,5.1-4.2,9.2-9.3,9.1c-5.1,0-9.3-4.1-9.3-9.2c0-0.5,0-1,0.1-1.5C528.6,416.3,534.7,416.3,540.8,416.3z"/>
							<path id="XMLID_338_" fill-rule="evenodd" clip-rule="evenodd" fill="#D88364" d="M560.1,416.4c0.1,0.5,0.1,1,0.1,1.5
								c0,5.1-4.2,9.2-9.3,9.1c-5.1,0-9.3-4.1-9.2-9.2c0-0.5,0-1,0.1-1.5C547.9,416.4,554,416.4,560.1,416.4z"/>
							<path id="XMLID_337_" fill-rule="evenodd" clip-rule="evenodd" fill="#D88364" d="M579.5,416.5c0.1,0.5,0.1,1,0.1,1.5
								c0,5.1-4.2,9.2-9.4,9.1c-5.1,0-9.3-4.2-9.2-9.2c0-0.5,0.1-1,0.1-1.5C567.2,416.4,573.4,416.5,579.5,416.5z"/>
							<path id="XMLID_336_" fill-rule="evenodd" clip-rule="evenodd" fill="#D88364" d="M598.8,416.6c0.1,0.5,0.1,1,0.1,1.5
								c0,5.1-4.2,9.2-9.4,9.1c-5.1,0-9.3-4.2-9.2-9.2c0-0.5,0.1-1,0.1-1.5C586.6,416.6,592.7,416.6,598.8,416.6z"/>
							<path id="XMLID_335_" fill-rule="evenodd" clip-rule="evenodd" fill="#D88364" d="M618.1,416.8c0.1,0.5,0.1,1,0.1,1.5
								c-0.1,5.1-4.3,9.1-9.4,9.1c-5.1,0-9.2-4.2-9.2-9.2c0-0.5,0.1-1,0.1-1.5C605.9,416.7,612,416.7,618.1,416.8z"/>
							<path id="XMLID_334_" fill-rule="evenodd" clip-rule="evenodd" fill="#D88364" d="M637.5,416.9c0.1,0.5,0.1,1,0.1,1.5
								c-0.1,5.1-4.3,9.1-9.4,9.1c-5.1,0-9.2-4.2-9.2-9.3c0-0.5,0.1-1,0.1-1.5C625.3,416.8,631.4,416.9,637.5,416.9z"/>
							<path id="XMLID_333_" fill-rule="evenodd" clip-rule="evenodd" fill="#D88364" d="M656.8,417.1c0.1,0.5,0.1,1,0.1,1.5
								c-0.1,5.1-4.3,9.1-9.4,9.1c-5.1-0.1-9.2-4.2-9.2-9.3c0-0.5,0.1-1,0.1-1.5C644.6,417,650.7,417.1,656.8,417.1z"/>
							<path id="XMLID_332_" fill-rule="evenodd" clip-rule="evenodd" fill="#D88364" d="M676.1,417.4c0.1,0.5,0.1,1,0.1,1.5
								c-0.1,5.1-4.3,9.1-9.4,9.1c-5.1-0.1-9.2-4.2-9.2-9.3c0-0.5,0.1-1,0.2-1.5C663.9,417.2,670,417.3,676.1,417.4z"/>
							<path id="XMLID_331_" fill-rule="evenodd" clip-rule="evenodd" fill="#D88364" d="M695.5,417.6c0.1,0.5,0.1,1,0.1,1.5
								c-0.1,5.1-4.3,9.1-9.4,9.1c-5.1-0.1-9.2-4.2-9.1-9.3c0-0.5,0.1-1,0.2-1.5C683.3,417.4,689.4,417.5,695.5,417.6z"/>
							<path id="XMLID_330_" fill-rule="evenodd" clip-rule="evenodd" fill="#D88364" d="M714.8,417.8c0.1,0.5,0.1,1,0.1,1.5
								c-0.1,5.1-4.3,9.1-9.4,9.1c-5.1-0.1-9.2-4.2-9.1-9.3c0-0.5,0.1-1,0.2-1.5C702.6,417.7,708.7,417.8,714.8,417.8z"/>
						</g>
						<g id="XMLID_304_">
							<path id="XMLID_328_" fill-rule="evenodd" clip-rule="evenodd" fill="#D88364" d="M261.2,429.5c0.1,0.5,0.1,1,0.2,1.5
								c0.1,5.1-4,9.2-9.1,9.3c-5.1,0.1-9.3-4-9.4-9.1c0-0.5,0-1,0.1-1.5C249,429.7,255.1,429.6,261.2,429.5z"/>
							<path id="XMLID_327_" fill-rule="evenodd" clip-rule="evenodd" fill="#D88364" d="M280.5,429.3c0.1,0.5,0.1,1,0.2,1.5
								c0.1,5.1-4,9.2-9.1,9.3c-5.1,0.1-9.3-4-9.4-9.1c0-0.5,0-1,0.1-1.5C268.3,429.4,274.4,429.4,280.5,429.3z"/>
							<path id="XMLID_326_" fill-rule="evenodd" clip-rule="evenodd" fill="#D88364" d="M299.9,429.1c0.1,0.5,0.1,1,0.1,1.5
								c0.1,5.1-4,9.2-9.1,9.3c-5.1,0.1-9.3-4-9.4-9.1c0-0.5,0-1,0.1-1.5C287.7,429.2,293.8,429.1,299.9,429.1z"/>
							<path id="XMLID_325_" fill-rule="evenodd" clip-rule="evenodd" fill="#D88364" d="M319.2,428.9c0.1,0.5,0.1,1,0.1,1.5
								c0.1,5.1-4,9.2-9.2,9.3c-5.1,0.1-9.3-4-9.4-9.1c0-0.5,0-1,0.1-1.5C307,429,313.1,429,319.2,428.9z"/>
							<path id="XMLID_324_" fill-rule="evenodd" clip-rule="evenodd" fill="#D88364" d="M338.5,428.7c0.1,0.5,0.1,1,0.1,1.5
								c0.1,5.1-4.1,9.2-9.2,9.3c-5.1,0-9.3-4-9.4-9.1c0-0.5,0-1,0.1-1.5C326.3,428.8,332.4,428.8,338.5,428.7z"/>
							<path id="XMLID_323_" fill-rule="evenodd" clip-rule="evenodd" fill="#D88364" d="M357.8,428.6c0.1,0.5,0.1,1,0.1,1.5
								c0,5.1-4.1,9.2-9.2,9.2c-5.1,0-9.3-4-9.4-9.1c0-0.5,0-1,0.1-1.5C345.6,428.7,351.7,428.6,357.8,428.6z"/>
							<path id="XMLID_322_" fill-rule="evenodd" clip-rule="evenodd" fill="#D88364" d="M377.1,428.5c0.1,0.5,0.1,1,0.1,1.5
								c0,5.1-4.1,9.2-9.2,9.2c-5.1,0-9.3-4-9.4-9.1c0-0.5,0-1,0.1-1.5C364.9,428.5,371,428.5,377.1,428.5z"/>
							<path id="XMLID_321_" fill-rule="evenodd" clip-rule="evenodd" fill="#D88364" d="M396.5,428.3c0.1,0.5,0.1,1,0.1,1.5
								c0,5.1-4.1,9.2-9.2,9.2c-5.1,0-9.3-4.1-9.3-9.1c0-0.5,0-1,0.1-1.5C384.3,428.4,390.4,428.4,396.5,428.3z"/>
							<path id="XMLID_320_" fill-rule="evenodd" clip-rule="evenodd" fill="#D88364" d="M415.8,428.3c0.1,0.5,0.1,1,0.1,1.5
								c0,5.1-4.1,9.2-9.2,9.2c-5.1,0-9.3-4.1-9.3-9.1c0-0.5,0-1,0.1-1.5C403.6,428.3,409.7,428.3,415.8,428.3z"/>
							<path id="XMLID_319_" fill-rule="evenodd" clip-rule="evenodd" fill="#D88364" d="M435.1,428.2c0.1,0.5,0.1,1,0.1,1.5
								c0,5.1-4.1,9.2-9.2,9.2c-5.1,0-9.3-4.1-9.3-9.1c0-0.5,0-1,0.1-1.5C422.9,428.2,429,428.2,435.1,428.2z"/>
							<path id="XMLID_318_" fill-rule="evenodd" clip-rule="evenodd" fill="#D88364" d="M454.4,428.2c0.1,0.5,0.1,1,0.1,1.5
								c0,5.1-4.1,9.2-9.3,9.2c-5.1,0-9.3-4.1-9.3-9.2c0-0.5,0-1,0.1-1.5C442.2,428.2,448.3,428.2,454.4,428.2z"/>
							<path id="XMLID_317_" fill-rule="evenodd" clip-rule="evenodd" fill="#D88364" d="M473.7,428.2c0.1,0.5,0.1,1,0.1,1.5
								c0,5.1-4.1,9.2-9.3,9.2c-5.1,0-9.3-4.1-9.3-9.2c0-0.5,0-1,0.1-1.5C461.5,428.2,467.6,428.2,473.7,428.2z"/>
							<path id="XMLID_316_" fill-rule="evenodd" clip-rule="evenodd" fill="#D88364" d="M493.1,428.2c0.1,0.5,0.1,1,0.1,1.5
								c0,5.1-4.2,9.2-9.3,9.2c-5.1,0-9.3-4.1-9.3-9.2c0-0.5,0-1,0.1-1.5C480.9,428.1,487,428.2,493.1,428.2z"/>
							<path id="XMLID_315_" fill-rule="evenodd" clip-rule="evenodd" fill="#D88364" d="M512.4,428.2c0.1,0.5,0.1,1,0.1,1.5
								c0,5.1-4.2,9.2-9.3,9.2c-5.1,0-9.3-4.1-9.3-9.2c0-0.5,0-1,0.1-1.5C500.2,428.2,506.3,428.2,512.4,428.2z"/>
							<path id="XMLID_314_" fill-rule="evenodd" clip-rule="evenodd" fill="#D88364" d="M531.7,428.2c0.1,0.5,0.1,1,0.1,1.5
								c0,5.1-4.2,9.2-9.3,9.2c-5.1,0-9.3-4.1-9.3-9.2c0-0.5,0-1,0.1-1.5C519.5,428.2,525.6,428.2,531.7,428.2z"/>
							<path id="XMLID_313_" fill-rule="evenodd" clip-rule="evenodd" fill="#D88364" d="M551,428.3c0.1,0.5,0.1,1,0.1,1.5
								c0,5.1-4.2,9.2-9.3,9.1c-5.1,0-9.3-4.1-9.2-9.2c0-0.5,0-1,0.1-1.5C538.8,428.3,544.9,428.3,551,428.3z"/>
							<path id="XMLID_312_" fill-rule="evenodd" clip-rule="evenodd" fill="#D88364" d="M570.4,428.4c0.1,0.5,0.1,1,0.1,1.5
								c0,5.1-4.2,9.2-9.3,9.1c-5.1,0-9.3-4.2-9.2-9.2c0-0.5,0.1-1,0.1-1.5C558.1,428.3,564.2,428.4,570.4,428.4z"/>
							<path id="XMLID_311_" fill-rule="evenodd" clip-rule="evenodd" fill="#D88364" d="M589.7,428.5c0.1,0.5,0.1,1,0.1,1.5
								c0,5.1-4.2,9.2-9.4,9.1c-5.1,0-9.2-4.2-9.2-9.2c0-0.5,0.1-1,0.1-1.5C577.5,428.4,583.6,428.5,589.7,428.5z"/>
							<path id="XMLID_310_" fill-rule="evenodd" clip-rule="evenodd" fill="#D88364" d="M609,428.6c0.1,0.5,0.1,1,0.1,1.5
								c-0.1,5.1-4.2,9.1-9.4,9.1c-5.1,0-9.2-4.2-9.2-9.2c0-0.5,0.1-1,0.1-1.5C596.8,428.6,602.9,428.6,609,428.6z"/>
							<path id="XMLID_309_" fill-rule="evenodd" clip-rule="evenodd" fill="#D88364" d="M628.3,428.8c0.1,0.5,0.1,1,0.1,1.5
								c-0.1,5.1-4.3,9.1-9.4,9.1c-5.1,0-9.2-4.2-9.2-9.3c0-0.5,0.1-1,0.1-1.5C616.1,428.7,622.2,428.8,628.3,428.8z"/>
							<path id="XMLID_308_" fill-rule="evenodd" clip-rule="evenodd" fill="#D88364" d="M647.6,429c0.1,0.5,0.1,1,0.1,1.5
								c-0.1,5.1-4.3,9.1-9.4,9.1c-5.1,0-9.2-4.2-9.2-9.3c0-0.5,0.1-1,0.1-1.5C635.4,428.9,641.5,428.9,647.6,429z"/>
							<path id="XMLID_307_" fill-rule="evenodd" clip-rule="evenodd" fill="#D88364" d="M667,429.2c0.1,0.5,0.1,1,0.1,1.5
								c-0.1,5.1-4.3,9.1-9.4,9.1c-5.1-0.1-9.2-4.2-9.2-9.3c0-0.5,0.1-1,0.1-1.5C654.8,429.1,660.9,429.1,667,429.2z"/>
							<path id="XMLID_306_" fill-rule="evenodd" clip-rule="evenodd" fill="#D88364" d="M686.3,429.4c0.1,0.5,0.1,1,0.1,1.5
								c-0.1,5.1-4.3,9.1-9.4,9.1c-5.1-0.1-9.2-4.2-9.1-9.3c0-0.5,0.1-1,0.2-1.5C674.1,429.3,680.2,429.3,686.3,429.4z"/>
							<path id="XMLID_305_" fill-rule="evenodd" clip-rule="evenodd" fill="#D88364" d="M705.6,429.7c0.1,0.5,0.1,1,0.1,1.5
								c-0.1,5.1-4.3,9.1-9.4,9.1c-5.1-0.1-9.2-4.2-9.1-9.3c0-0.5,0.1-1,0.2-1.5C693.4,429.5,699.5,429.6,705.6,429.7z"/>
						</g>
						<g id="XMLID_279_">
							<path id="XMLID_303_" fill-rule="evenodd" clip-rule="evenodd" fill="#D88364" d="M261.7,453.4c0.1,0.5,0.1,1,0.2,1.5
								c0.1,5.1-4,9.2-9.1,9.3c-5.1,0.1-9.3-4-9.4-9.1c0-0.5,0-1,0.1-1.5C249.5,453.6,255.6,453.5,261.7,453.4z"/>
							<path id="XMLID_302_" fill-rule="evenodd" clip-rule="evenodd" fill="#D88364" d="M281,453.2c0.1,0.5,0.1,1,0.2,1.5
								c0.1,5.1-4,9.2-9.1,9.3c-5.1,0.1-9.3-4-9.4-9.1c0-0.5,0-1,0.1-1.5C268.8,453.3,274.9,453.2,281,453.2z"/>
							<path id="XMLID_301_" fill-rule="evenodd" clip-rule="evenodd" fill="#D88364" d="M300.3,453c0.1,0.5,0.1,1,0.1,1.5
								c0.1,5.1-4,9.2-9.1,9.3c-5.1,0.1-9.3-4-9.4-9.1c0-0.5,0-1,0.1-1.5C288.1,453.1,294.2,453,300.3,453z"/>
							<path id="XMLID_300_" fill-rule="evenodd" clip-rule="evenodd" fill="#D88364" d="M319.5,452.8c0.1,0.5,0.1,1,0.1,1.5
								c0.1,5.1-4,9.2-9.1,9.3c-5.1,0.1-9.3-4-9.4-9.1c0-0.5,0-1,0.1-1.5C307.4,452.9,313.4,452.8,319.5,452.8z"/>
							<path id="XMLID_299_" fill-rule="evenodd" clip-rule="evenodd" fill="#D88364" d="M338.8,452.6c0.1,0.5,0.1,1,0.1,1.5
								c0.1,5.1-4,9.2-9.2,9.3c-5.1,0-9.3-4-9.4-9.1c0-0.5,0-1,0.1-1.5C326.6,452.7,332.7,452.6,338.8,452.6z"/>
							<path id="XMLID_298_" fill-rule="evenodd" clip-rule="evenodd" fill="#D88364" d="M358.1,452.4c0.1,0.5,0.1,1,0.1,1.5
								c0,5.1-4.1,9.2-9.2,9.2c-5.1,0-9.3-4-9.4-9.1c0-0.5,0-1,0.1-1.5C345.9,452.5,352,452.5,358.1,452.4z"/>
							<path id="XMLID_297_" fill-rule="evenodd" clip-rule="evenodd" fill="#D88364" d="M377.4,452.3c0.1,0.5,0.1,1,0.1,1.5
								c0,5.1-4.1,9.2-9.2,9.2c-5.1,0-9.3-4-9.3-9.1c0-0.5,0-1,0.1-1.5C365.2,452.4,371.3,452.4,377.4,452.3z"/>
							<path id="XMLID_296_" fill-rule="evenodd" clip-rule="evenodd" fill="#D88364" d="M396.7,452.2c0.1,0.5,0.1,1,0.1,1.5
								c0,5.1-4.1,9.2-9.2,9.2c-5.1,0-9.3-4.1-9.3-9.1c0-0.5,0-1,0.1-1.5C384.5,452.3,390.6,452.2,396.7,452.2z"/>
							<path id="XMLID_295_" fill-rule="evenodd" clip-rule="evenodd" fill="#D88364" d="M416,452.1c0.1,0.5,0.1,1,0.1,1.5
								c0,5.1-4.1,9.2-9.2,9.2c-5.1,0-9.3-4.1-9.3-9.1c0-0.5,0-1,0.1-1.5C403.8,452.2,409.9,452.2,416,452.1z"/>
							<path id="XMLID_294_" fill-rule="evenodd" clip-rule="evenodd" fill="#D88364" d="M435.3,452.1c0.1,0.5,0.1,1,0.1,1.5
								c0,5.1-4.1,9.2-9.2,9.2c-5.1,0-9.3-4.1-9.3-9.1c0-0.5,0-1,0.1-1.5C423.1,452.1,429.2,452.1,435.3,452.1z"/>
							<path id="XMLID_293_" fill-rule="evenodd" clip-rule="evenodd" fill="#D88364" d="M454.5,452c0.1,0.5,0.1,1,0.1,1.5
								c0,5.1-4.1,9.2-9.2,9.2c-5.1,0-9.3-4.1-9.3-9.2c0-0.5,0-1,0.1-1.5C442.4,452.1,448.4,452,454.5,452z"/>
							<path id="XMLID_292_" fill-rule="evenodd" clip-rule="evenodd" fill="#D88364" d="M473.8,452c0.1,0.5,0.1,1,0.1,1.5
								c0,5.1-4.1,9.2-9.3,9.2c-5.1,0-9.3-4.1-9.3-9.2c0-0.5,0-1,0.1-1.5C461.6,452,467.7,452,473.8,452z"/>
							<path id="XMLID_291_" fill-rule="evenodd" clip-rule="evenodd" fill="#D88364" d="M493.1,452c0.1,0.5,0.1,1,0.1,1.5
								c0,5.1-4.2,9.2-9.3,9.2c-5.1,0-9.3-4.1-9.3-9.2c0-0.5,0-1,0.1-1.5C480.9,452,487,452,493.1,452z"/>
							<path id="XMLID_290_" fill-rule="evenodd" clip-rule="evenodd" fill="#D88364" d="M512.4,452.1c0.1,0.5,0.1,1,0.1,1.5
								c0,5.1-4.2,9.2-9.3,9.2c-5.1,0-9.3-4.1-9.2-9.2c0-0.5,0-1,0.1-1.5C500.2,452,506.3,452,512.4,452.1z"/>
							<path id="XMLID_289_" fill-rule="evenodd" clip-rule="evenodd" fill="#D88364" d="M531.7,452.1c0.1,0.5,0.1,1,0.1,1.5
								c0,5.1-4.2,9.2-9.3,9.2c-5.1,0-9.2-4.1-9.2-9.2c0-0.5,0-1,0.1-1.5C519.5,452.1,525.6,452.1,531.7,452.1z"/>
							<path id="XMLID_288_" fill-rule="evenodd" clip-rule="evenodd" fill="#D88364" d="M551,452.2c0.1,0.5,0.1,1,0.1,1.5
								c0,5.1-4.2,9.2-9.3,9.1c-5.1,0-9.2-4.1-9.2-9.2c0-0.5,0-1,0.1-1.5C538.8,452.1,544.9,452.1,551,452.2z"/>
							<path id="XMLID_287_" fill-rule="evenodd" clip-rule="evenodd" fill="#D88364" d="M570.3,452.3c0.1,0.5,0.1,1,0.1,1.5
								c0,5.1-4.2,9.2-9.3,9.1c-5.1,0-9.2-4.2-9.2-9.2c0-0.5,0.1-1,0.1-1.5C558.1,452.2,564.2,452.2,570.3,452.3z"/>
							<path id="XMLID_286_" fill-rule="evenodd" clip-rule="evenodd" fill="#D88364" d="M589.5,452.4c0.1,0.5,0.1,1,0.1,1.5
								c0,5.1-4.2,9.2-9.3,9.1c-5.1,0-9.2-4.2-9.2-9.2c0-0.5,0.1-1,0.1-1.5C577.4,452.3,583.4,452.3,589.5,452.4z"/>
							<path id="XMLID_285_" fill-rule="evenodd" clip-rule="evenodd" fill="#D88364" d="M608.8,452.5c0.1,0.5,0.1,1,0.1,1.5
								c-0.1,5.1-4.2,9.1-9.3,9.1c-5.1,0-9.2-4.2-9.2-9.2c0-0.5,0.1-1,0.1-1.5C596.6,452.4,602.7,452.5,608.8,452.5z"/>
							<path id="XMLID_284_" fill-rule="evenodd" clip-rule="evenodd" fill="#D88364" d="M628.1,452.7c0.1,0.5,0.1,1,0.1,1.5
								c-0.1,5.1-4.2,9.1-9.4,9.1c-5.1,0-9.2-4.2-9.2-9.3c0-0.5,0.1-1,0.1-1.5C615.9,452.6,622,452.6,628.1,452.7z"/>
							<path id="XMLID_283_" fill-rule="evenodd" clip-rule="evenodd" fill="#D88364" d="M647.4,452.9c0.1,0.5,0.1,1,0.1,1.5
								c-0.1,5.1-4.3,9.1-9.4,9.1c-5.1,0-9.2-4.2-9.2-9.3c0-0.5,0.1-1,0.1-1.5C635.2,452.7,641.3,452.8,647.4,452.9z"/>
							<path id="XMLID_282_" fill-rule="evenodd" clip-rule="evenodd" fill="#D88364" d="M666.7,453.1c0.1,0.5,0.1,1,0.1,1.5
								c-0.1,5.1-4.3,9.1-9.4,9.1c-5.1-0.1-9.2-4.2-9.1-9.3c0-0.5,0.1-1,0.1-1.5C654.5,452.9,660.6,453,666.7,453.1z"/>
							<path id="XMLID_281_" fill-rule="evenodd" clip-rule="evenodd" fill="#D88364" d="M686,453.3c0.1,0.5,0.1,1,0.1,1.5
								c-0.1,5.1-4.3,9.1-9.4,9.1c-5.1-0.1-9.2-4.2-9.1-9.3c0-0.5,0.1-1,0.2-1.5C673.8,453.1,679.9,453.2,686,453.3z"/>
							<path id="XMLID_280_" fill-rule="evenodd" clip-rule="evenodd" fill="#D88364" d="M705.2,453.5c0.1,0.5,0.1,1,0.1,1.5
								c-0.1,5.1-4.3,9.1-9.4,9.1c-5.1-0.1-9.2-4.2-9.1-9.3c0-0.5,0.1-1,0.2-1.5C693.1,453.4,699.2,453.4,705.2,453.5z"/>
						</g>
						<g id="XMLID_254_">
							<path id="XMLID_278_" fill-rule="evenodd" clip-rule="evenodd" fill="#D88364" d="M262.1,477.3c0.1,0.5,0.1,1,0.2,1.5
								c0.1,5.1-4,9.2-9.1,9.3c-5.1,0.1-9.3-4-9.4-9.1c0-0.5,0-1,0.1-1.5C250,477.4,256.1,477.3,262.1,477.3z"/>
							<path id="XMLID_277_" fill-rule="evenodd" clip-rule="evenodd" fill="#D88364" d="M281.4,477c0.1,0.5,0.1,1,0.2,1.5
								c0.1,5.1-4,9.2-9.1,9.3c-5.1,0.1-9.3-4-9.4-9.1c0-0.5,0-1,0.1-1.5C269.2,477.2,275.3,477.1,281.4,477z"/>
							<path id="XMLID_276_" fill-rule="evenodd" clip-rule="evenodd" fill="#D88364" d="M300.6,476.8c0.1,0.5,0.1,1,0.1,1.5
								c0.1,5.1-4,9.2-9.1,9.3c-5.1,0.1-9.3-4-9.4-9.1c0-0.5,0-1,0.1-1.5C288.5,477,294.6,476.9,300.6,476.8z"/>
							<path id="XMLID_275_" fill-rule="evenodd" clip-rule="evenodd" fill="#D88364" d="M319.9,476.6c0.1,0.5,0.1,1,0.1,1.5
								c0.1,5.1-4,9.2-9.1,9.3c-5.1,0.1-9.3-4-9.4-9.1c0-0.5,0-1,0.1-1.5C307.7,476.8,313.8,476.7,319.9,476.6z"/>
							<path id="XMLID_274_" fill-rule="evenodd" clip-rule="evenodd" fill="#D88364" d="M339.1,476.5c0.1,0.5,0.1,1,0.1,1.5
								c0.1,5.1-4,9.2-9.1,9.3c-5.1,0-9.3-4-9.4-9.1c0-0.5,0-1,0.1-1.5C327,476.6,333.1,476.5,339.1,476.5z"/>
							<path id="XMLID_273_" fill-rule="evenodd" clip-rule="evenodd" fill="#D88364" d="M358.4,476.3c0.1,0.5,0.1,1,0.1,1.5
								c0,5.1-4.1,9.2-9.2,9.2c-5.1,0-9.3-4-9.3-9.1c0-0.5,0-1,0.1-1.5C346.2,476.4,352.3,476.4,358.4,476.3z"/>
							<path id="XMLID_272_" fill-rule="evenodd" clip-rule="evenodd" fill="#D88364" d="M377.6,476.2c0.1,0.5,0.1,1,0.1,1.5
								c0,5.1-4.1,9.2-9.2,9.2c-5.1,0-9.3-4-9.3-9.1c0-0.5,0-1,0.1-1.5C365.5,476.3,371.6,476.2,377.6,476.2z"/>
							<path id="XMLID_271_" fill-rule="evenodd" clip-rule="evenodd" fill="#D88364" d="M396.9,476.1c0.1,0.5,0.1,1,0.1,1.5
								c0,5.1-4.1,9.2-9.2,9.2c-5.1,0-9.3-4.1-9.3-9.1c0-0.5,0-1,0.1-1.5C384.7,476.2,390.8,476.1,396.9,476.1z"/>
							<path id="XMLID_270_" fill-rule="evenodd" clip-rule="evenodd" fill="#D88364" d="M416.1,476c0.1,0.5,0.1,1,0.1,1.5
								c0,5.1-4.1,9.2-9.2,9.2c-5.1,0-9.3-4.1-9.3-9.1c0-0.5,0-1,0.1-1.5C404,476.1,410.1,476,416.1,476z"/>
							<path id="XMLID_269_" fill-rule="evenodd" clip-rule="evenodd" fill="#D88364" d="M435.4,475.9c0.1,0.5,0.1,1,0.1,1.5
								c0,5.1-4.1,9.2-9.2,9.2c-5.1,0-9.3-4.1-9.3-9.1c0-0.5,0-1,0.1-1.5C423.2,476,429.3,476,435.4,475.9z"/>
							<path id="XMLID_268_" fill-rule="evenodd" clip-rule="evenodd" fill="#D88364" d="M454.6,475.9c0.1,0.5,0.1,1,0.1,1.5
								c0,5.1-4.1,9.2-9.2,9.2c-5.1,0-9.3-4.1-9.3-9.2c0-0.5,0-1,0.1-1.5C442.5,475.9,448.6,475.9,454.6,475.9z"/>
							<path id="XMLID_267_" fill-rule="evenodd" clip-rule="evenodd" fill="#D88364" d="M473.9,475.9c0.1,0.5,0.1,1,0.1,1.5
								c0,5.1-4.1,9.2-9.2,9.2c-5.1,0-9.2-4.1-9.3-9.2c0-0.5,0-1,0.1-1.5C461.7,475.9,467.8,475.9,473.9,475.9z"/>
							<path id="XMLID_266_" fill-rule="evenodd" clip-rule="evenodd" fill="#D88364" d="M493.1,475.9c0.1,0.5,0.1,1,0.1,1.5
								c0,5.1-4.1,9.2-9.3,9.2c-5.1,0-9.2-4.1-9.2-9.2c0-0.5,0-1,0.1-1.5C481,475.9,487.1,475.9,493.1,475.9z"/>
							<path id="XMLID_265_" fill-rule="evenodd" clip-rule="evenodd" fill="#D88364" d="M512.4,475.9c0.1,0.5,0.1,1,0.1,1.5
								c0,5.1-4.2,9.2-9.3,9.2c-5.1,0-9.2-4.1-9.2-9.2c0-0.5,0-1,0.1-1.5C500.2,475.9,506.3,475.9,512.4,475.9z"/>
							<path id="XMLID_264_" fill-rule="evenodd" clip-rule="evenodd" fill="#D88364" d="M531.7,476c0.1,0.5,0.1,1,0.1,1.5
								c0,5.1-4.2,9.2-9.3,9.2c-5.1,0-9.2-4.1-9.2-9.2c0-0.5,0-1,0.1-1.5C519.5,475.9,525.6,476,531.7,476z"/>
							<path id="XMLID_263_" fill-rule="evenodd" clip-rule="evenodd" fill="#D88364" d="M550.9,476c0.1,0.5,0.1,1,0.1,1.5
								c0,5.1-4.2,9.2-9.3,9.1c-5.1,0-9.2-4.1-9.2-9.2c0-0.5,0-1,0.1-1.5C538.7,476,544.8,476,550.9,476z"/>
							<path id="XMLID_262_" fill-rule="evenodd" clip-rule="evenodd" fill="#D88364" d="M570.2,476.1c0.1,0.5,0.1,1,0.1,1.5
								c0,5.1-4.2,9.2-9.3,9.1c-5.1,0-9.2-4.2-9.2-9.2c0-0.5,0-1,0.1-1.5C558,476.1,564.1,476.1,570.2,476.1z"/>
							<path id="XMLID_261_" fill-rule="evenodd" clip-rule="evenodd" fill="#D88364" d="M589.4,476.3c0.1,0.5,0.1,1,0.1,1.5
								c0,5.1-4.2,9.2-9.3,9.1c-5.1,0-9.2-4.2-9.2-9.2c0-0.5,0.1-1,0.1-1.5C577.2,476.2,583.3,476.2,589.4,476.3z"/>
							<path id="XMLID_260_" fill-rule="evenodd" clip-rule="evenodd" fill="#D88364" d="M608.7,476.4c0.1,0.5,0.1,1,0.1,1.5
								c-0.1,5.1-4.2,9.1-9.3,9.1c-5.1,0-9.2-4.2-9.2-9.2c0-0.5,0.1-1,0.1-1.5C596.5,476.3,602.6,476.3,608.7,476.4z"/>
							<path id="XMLID_259_" fill-rule="evenodd" clip-rule="evenodd" fill="#D88364" d="M627.9,476.5c0.1,0.5,0.1,1,0.1,1.5
								c-0.1,5.1-4.2,9.1-9.3,9.1c-5.1,0-9.2-4.2-9.1-9.3c0-0.5,0.1-1,0.1-1.5C615.7,476.4,621.8,476.5,627.9,476.5z"/>
							<path id="XMLID_258_" fill-rule="evenodd" clip-rule="evenodd" fill="#D88364" d="M647.2,476.7c0.1,0.5,0.1,1,0.1,1.5
								c-0.1,5.1-4.3,9.1-9.4,9.1c-5.1,0-9.2-4.2-9.1-9.3c0-0.5,0.1-1,0.1-1.5C635,476.6,641.1,476.7,647.2,476.7z"/>
							<path id="XMLID_257_" fill-rule="evenodd" clip-rule="evenodd" fill="#D88364" d="M666.4,476.9c0.1,0.5,0.1,1,0.1,1.5
								c-0.1,5.1-4.3,9.1-9.4,9.1c-5.1-0.1-9.2-4.2-9.1-9.3c0-0.5,0.1-1,0.1-1.5C654.2,476.8,660.3,476.9,666.4,476.9z"/>
							<path id="XMLID_256_" fill-rule="evenodd" clip-rule="evenodd" fill="#D88364" d="M685.7,477.2c0.1,0.5,0.1,1,0.1,1.5
								c-0.1,5.1-4.3,9.1-9.4,9.1c-5.1-0.1-9.2-4.2-9.1-9.3c0-0.5,0.1-1,0.2-1.5C673.5,477,679.6,477.1,685.7,477.2z"/>
							<path id="XMLID_255_" fill-rule="evenodd" clip-rule="evenodd" fill="#D88364" d="M704.9,477.4c0.1,0.5,0.1,1,0.1,1.5
								c-0.1,5.1-4.3,9.1-9.4,9.1c-5.1-0.1-9.2-4.2-9.1-9.3c0-0.5,0.1-1,0.2-1.5C692.7,477.2,698.8,477.3,704.9,477.4z"/>
						</g>
						<g id="XMLID_229_">
							<path id="XMLID_253_" fill-rule="evenodd" clip-rule="evenodd" fill="#D88364" d="M269.3,441.4c0.1,0.5,0.1,1,0.2,1.5
								c0.1,5.1-4,9.2-9.1,9.3c-5.1,0.1-9.3-4-9.4-9.1c0-0.5,0-1,0.1-1.5C257.2,441.5,263.2,441.4,269.3,441.4z"/>
							<path id="XMLID_252_" fill-rule="evenodd" clip-rule="evenodd" fill="#D88364" d="M288.6,441.1c0.1,0.5,0.1,1,0.2,1.5
								c0.1,5.1-4,9.2-9.1,9.3c-5.1,0.1-9.3-4-9.4-9.1c0-0.5,0-1,0.1-1.5C276.5,441.3,282.5,441.2,288.6,441.1z"/>
							<path id="XMLID_251_" fill-rule="evenodd" clip-rule="evenodd" fill="#D88364" d="M307.9,440.9c0.1,0.5,0.1,1,0.1,1.5
								c0.1,5.1-4,9.2-9.1,9.3c-5.1,0.1-9.3-4-9.4-9.1c0-0.5,0-1,0.1-1.5C295.8,441.1,301.9,441,307.9,440.9z"/>
							<path id="XMLID_250_" fill-rule="evenodd" clip-rule="evenodd" fill="#D88364" d="M327.3,440.8c0.1,0.5,0.1,1,0.1,1.5
								c0.1,5.1-4,9.2-9.2,9.3c-5.1,0-9.3-4-9.4-9.1c0-0.5,0-1,0.1-1.5C315.1,440.9,321.2,440.8,327.3,440.8z"/>
							<path id="XMLID_249_" fill-rule="evenodd" clip-rule="evenodd" fill="#D88364" d="M346.6,440.6c0.1,0.5,0.1,1,0.1,1.5
								c0.1,5.1-4.1,9.2-9.2,9.3c-5.1,0-9.3-4-9.4-9.1c0-0.5,0-1,0.1-1.5C334.4,440.7,340.5,440.6,346.6,440.6z"/>
							<path id="XMLID_248_" fill-rule="evenodd" clip-rule="evenodd" fill="#D88364" d="M365.9,440.5c0.1,0.5,0.1,1,0.1,1.5
								c0,5.1-4.1,9.2-9.2,9.2c-5.1,0-9.3-4-9.4-9.1c0-0.5,0-1,0.1-1.5C353.7,440.5,359.8,440.5,365.9,440.5z"/>
							<path id="XMLID_247_" fill-rule="evenodd" clip-rule="evenodd" fill="#D88364" d="M385.2,440.3c0.1,0.5,0.1,1,0.1,1.5
								c0,5.1-4.1,9.2-9.2,9.2c-5.1,0-9.3-4.1-9.3-9.1c0-0.5,0-1,0.1-1.5C373,440.4,379.1,440.4,385.2,440.3z"/>
							<path id="XMLID_246_" fill-rule="evenodd" clip-rule="evenodd" fill="#D88364" d="M404.5,440.2c0.1,0.5,0.1,1,0.1,1.5
								c0,5.1-4.1,9.2-9.2,9.2c-5.1,0-9.3-4.1-9.3-9.1c0-0.5,0-1,0.1-1.5C392.3,440.3,398.4,440.3,404.5,440.2z"/>
							<path id="XMLID_245_" fill-rule="evenodd" clip-rule="evenodd" fill="#D88364" d="M423.8,440.2c0.1,0.5,0.1,1,0.1,1.5
								c0,5.1-4.1,9.2-9.2,9.2c-5.1,0-9.3-4.1-9.3-9.1c0-0.5,0-1,0.1-1.5C411.6,440.2,417.7,440.2,423.8,440.2z"/>
							<path id="XMLID_244_" fill-rule="evenodd" clip-rule="evenodd" fill="#D88364" d="M443.1,440.1c0.1,0.5,0.1,1,0.1,1.5
								c0,5.1-4.1,9.2-9.2,9.2c-5.1,0-9.3-4.1-9.3-9.2c0-0.5,0-1,0.1-1.5C430.9,440.2,437,440.1,443.1,440.1z"/>
							<path id="XMLID_243_" fill-rule="evenodd" clip-rule="evenodd" fill="#D88364" d="M462.4,440.1c0.1,0.5,0.1,1,0.1,1.5
								c0,5.1-4.1,9.2-9.3,9.2c-5.1,0-9.3-4.1-9.3-9.2c0-0.5,0-1,0.1-1.5C450.2,440.1,456.3,440.1,462.4,440.1z"/>
							<path id="XMLID_242_" fill-rule="evenodd" clip-rule="evenodd" fill="#D88364" d="M481.7,440.1c0.1,0.5,0.1,1,0.1,1.5
								c0,5.1-4.2,9.2-9.3,9.2c-5.1,0-9.3-4.1-9.3-9.2c0-0.5,0-1,0.1-1.5C469.5,440.1,475.6,440.1,481.7,440.1z"/>
							<path id="XMLID_241_" fill-rule="evenodd" clip-rule="evenodd" fill="#D88364" d="M501,440.1c0.1,0.5,0.1,1,0.1,1.5
								c0,5.1-4.2,9.2-9.3,9.2c-5.1,0-9.3-4.1-9.3-9.2c0-0.5,0-1,0.1-1.5C488.8,440.1,494.9,440.1,501,440.1z"/>
							<path id="XMLID_240_" fill-rule="evenodd" clip-rule="evenodd" fill="#D88364" d="M520.3,440.1c0.1,0.5,0.1,1,0.1,1.5
								c0,5.1-4.2,9.2-9.3,9.2c-5.1,0-9.3-4.1-9.2-9.2c0-0.5,0-1,0.1-1.5C508.1,440.1,514.2,440.1,520.3,440.1z"/>
							<path id="XMLID_239_" fill-rule="evenodd" clip-rule="evenodd" fill="#D88364" d="M539.6,440.2c0.1,0.5,0.1,1,0.1,1.5
								c0,5.1-4.2,9.2-9.3,9.2c-5.1,0-9.3-4.1-9.2-9.2c0-0.5,0-1,0.1-1.5C527.4,440.2,533.5,440.2,539.6,440.2z"/>
							<path id="XMLID_238_" fill-rule="evenodd" clip-rule="evenodd" fill="#D88364" d="M558.9,440.3c0.1,0.5,0.1,1,0.1,1.5
								c0,5.1-4.2,9.2-9.3,9.1c-5.1,0-9.2-4.1-9.2-9.2c0-0.5,0-1,0.1-1.5C546.7,440.2,552.8,440.2,558.9,440.3z"/>
							<path id="XMLID_237_" fill-rule="evenodd" clip-rule="evenodd" fill="#D88364" d="M578.2,440.4c0.1,0.5,0.1,1,0.1,1.5
								c0,5.1-4.2,9.2-9.3,9.1c-5.1,0-9.2-4.2-9.2-9.2c0-0.5,0.1-1,0.1-1.5C566,440.3,572.1,440.3,578.2,440.4z"/>
							<path id="XMLID_236_" fill-rule="evenodd" clip-rule="evenodd" fill="#D88364" d="M597.5,440.5c0.1,0.5,0.1,1,0.1,1.5
								c0,5.1-4.2,9.2-9.3,9.1c-5.1,0-9.2-4.2-9.2-9.2c0-0.5,0.1-1,0.1-1.5C585.3,440.4,591.4,440.5,597.5,440.5z"/>
							<path id="XMLID_235_" fill-rule="evenodd" clip-rule="evenodd" fill="#D88364" d="M616.8,440.6c0.1,0.5,0.1,1,0.1,1.5
								c-0.1,5.1-4.2,9.1-9.4,9.1c-5.1,0-9.2-4.2-9.2-9.2c0-0.5,0.1-1,0.1-1.5C604.6,440.5,610.7,440.6,616.8,440.6z"/>
							<path id="XMLID_234_" fill-rule="evenodd" clip-rule="evenodd" fill="#D88364" d="M636.1,440.8c0.1,0.5,0.1,1,0.1,1.5
								c-0.1,5.1-4.3,9.1-9.4,9.1c-5.1,0-9.2-4.2-9.2-9.3c0-0.5,0.1-1,0.1-1.5C623.9,440.7,630,440.8,636.1,440.8z"/>
							<path id="XMLID_233_" fill-rule="evenodd" clip-rule="evenodd" fill="#D88364" d="M655.4,441c0.1,0.5,0.1,1,0.1,1.5
								c-0.1,5.1-4.3,9.1-9.4,9.1c-5.1-0.1-9.2-4.2-9.2-9.3c0-0.5,0.1-1,0.1-1.5C643.2,440.9,649.3,440.9,655.4,441z"/>
							<path id="XMLID_232_" fill-rule="evenodd" clip-rule="evenodd" fill="#D88364" d="M674.7,441.2c0.1,0.5,0.1,1,0.1,1.5
								c-0.1,5.1-4.3,9.1-9.4,9.1c-5.1-0.1-9.2-4.2-9.1-9.3c0-0.5,0.1-1,0.1-1.5C662.5,441.1,668.6,441.1,674.7,441.2z"/>
							<path id="XMLID_231_" fill-rule="evenodd" clip-rule="evenodd" fill="#D88364" d="M694,441.4c0.1,0.5,0.1,1,0.1,1.5
								c-0.1,5.1-4.3,9.1-9.4,9.1c-5.1-0.1-9.2-4.2-9.1-9.3c0-0.5,0.1-1,0.2-1.5C681.8,441.3,687.9,441.4,694,441.4z"/>
							<path id="XMLID_230_" fill-rule="evenodd" clip-rule="evenodd" fill="#D88364" d="M713.3,441.7c0.1,0.5,0.1,1,0.1,1.5
								c-0.1,5.1-4.3,9.1-9.4,9.1c-5.1-0.1-9.2-4.2-9.1-9.3c0-0.5,0.1-1,0.2-1.5C701.1,441.5,707.2,441.6,713.3,441.7z"/>
						</g>
						<g id="XMLID_204_">
							<path id="XMLID_228_" fill-rule="evenodd" clip-rule="evenodd" fill="#D88364" d="M268.6,465.3c0.1,0.5,0.1,1,0.2,1.5
								c0.1,5.1-4,9.2-9.1,9.3c-5.1,0.1-9.3-4-9.4-9.1c0-0.5,0-1,0.1-1.5C256.5,465.4,262.6,465.3,268.6,465.3z"/>
							<path id="XMLID_227_" fill-rule="evenodd" clip-rule="evenodd" fill="#D88364" d="M287.9,465c0.1,0.5,0.1,1,0.2,1.5
								c0.1,5.1-4,9.2-9.1,9.3c-5.1,0.1-9.3-4-9.4-9.1c0-0.5,0-1,0.1-1.5C275.7,465.2,281.8,465.1,287.9,465z"/>
							<path id="XMLID_226_" fill-rule="evenodd" clip-rule="evenodd" fill="#D88364" d="M307.2,464.8c0.1,0.5,0.1,1,0.1,1.5
								c0.1,5.1-4,9.2-9.1,9.3c-5.1,0.1-9.3-4-9.4-9.1c0-0.5,0-1,0.1-1.5C295,464.9,301.1,464.9,307.2,464.8z"/>
							<path id="XMLID_225_" fill-rule="evenodd" clip-rule="evenodd" fill="#D88364" d="M326.4,464.6c0.1,0.5,0.1,1,0.1,1.5
								c0.1,5.1-4,9.2-9.1,9.3c-5.1,0-9.3-4-9.4-9.1c0-0.5,0-1,0.1-1.5C314.3,464.8,320.4,464.7,326.4,464.6z"/>
							<path id="XMLID_224_" fill-rule="evenodd" clip-rule="evenodd" fill="#D88364" d="M345.7,464.5c0.1,0.5,0.1,1,0.1,1.5
								c0.1,5.1-4,9.2-9.2,9.3c-5.1,0-9.3-4-9.4-9.1c0-0.5,0-1,0.1-1.5C333.5,464.6,339.6,464.5,345.7,464.5z"/>
							<path id="XMLID_223_" fill-rule="evenodd" clip-rule="evenodd" fill="#D88364" d="M365,464.3c0.1,0.5,0.1,1,0.1,1.5
								c0,5.1-4.1,9.2-9.2,9.2c-5.1,0-9.3-4-9.3-9.1c0-0.5,0-1,0.1-1.5C352.8,464.4,358.9,464.4,365,464.3z"/>
							<path id="XMLID_222_" fill-rule="evenodd" clip-rule="evenodd" fill="#D88364" d="M384.2,464.2c0.1,0.5,0.1,1,0.1,1.5
								c0,5.1-4.1,9.2-9.2,9.2c-5.1,0-9.3-4.1-9.3-9.1c0-0.5,0-1,0.1-1.5C372.1,464.3,378.2,464.3,384.2,464.2z"/>
							<path id="XMLID_221_" fill-rule="evenodd" clip-rule="evenodd" fill="#D88364" d="M403.5,464.1c0.1,0.5,0.1,1,0.1,1.5
								c0,5.1-4.1,9.2-9.2,9.2c-5.1,0-9.3-4.1-9.3-9.1c0-0.5,0-1,0.1-1.5C391.3,464.2,397.4,464.2,403.5,464.1z"/>
							<path id="XMLID_220_" fill-rule="evenodd" clip-rule="evenodd" fill="#D88364" d="M422.8,464.1c0.1,0.5,0.1,1,0.1,1.5
								c0,5.1-4.1,9.2-9.2,9.2c-5.1,0-9.3-4.1-9.3-9.1c0-0.5,0-1,0.1-1.5C410.6,464.1,416.7,464.1,422.8,464.1z"/>
							<path id="XMLID_219_" fill-rule="evenodd" clip-rule="evenodd" fill="#D88364" d="M442.1,464c0.1,0.5,0.1,1,0.1,1.5
								c0,5.1-4.1,9.2-9.2,9.2c-5.1,0-9.3-4.1-9.3-9.2c0-0.5,0-1,0.1-1.5C429.9,464,436,464,442.1,464z"/>
							<path id="XMLID_218_" fill-rule="evenodd" clip-rule="evenodd" fill="#D88364" d="M461.3,464c0.1,0.5,0.1,1,0.1,1.5
								c0,5.1-4.1,9.2-9.2,9.2c-5.1,0-9.3-4.1-9.3-9.2c0-0.5,0-1,0.1-1.5C449.1,464,455.2,464,461.3,464z"/>
							<path id="XMLID_217_" fill-rule="evenodd" clip-rule="evenodd" fill="#D88364" d="M480.6,464c0.1,0.5,0.1,1,0.1,1.5
								c0,5.1-4.1,9.2-9.2,9.2c-5.1,0-9.3-4.1-9.3-9.2c0-0.5,0-1,0.1-1.5C468.4,464,474.5,464,480.6,464z"/>
							<path id="XMLID_216_" fill-rule="evenodd" clip-rule="evenodd" fill="#D88364" d="M499.9,464c0.1,0.5,0.1,1,0.1,1.5
								c0,5.1-4.2,9.2-9.3,9.2c-5.1,0-9.2-4.1-9.2-9.2c0-0.5,0-1,0.1-1.5C487.7,464,493.8,464,499.9,464z"/>
							<path id="XMLID_215_" fill-rule="evenodd" clip-rule="evenodd" fill="#D88364" d="M519.1,464c0.1,0.5,0.1,1,0.1,1.5
								c0,5.1-4.2,9.2-9.3,9.2c-5.1,0-9.2-4.1-9.2-9.2c0-0.5,0-1,0.1-1.5C507,464,513,464,519.1,464z"/>
							<path id="XMLID_214_" fill-rule="evenodd" clip-rule="evenodd" fill="#D88364" d="M538.4,464.1c0.1,0.5,0.1,1,0.1,1.5
								c0,5.1-4.2,9.2-9.3,9.2c-5.1,0-9.2-4.1-9.2-9.2c0-0.5,0-1,0.1-1.5C526.2,464,532.3,464,538.4,464.1z"/>
							<path id="XMLID_213_" fill-rule="evenodd" clip-rule="evenodd" fill="#D88364" d="M557.7,464.1c0.1,0.5,0.1,1,0.1,1.5
								c0,5.1-4.2,9.2-9.3,9.1c-5.1,0-9.2-4.1-9.2-9.2c0-0.5,0-1,0.1-1.5C545.5,464.1,551.6,464.1,557.7,464.1z"/>
							<path id="XMLID_212_" fill-rule="evenodd" clip-rule="evenodd" fill="#D88364" d="M576.9,464.2c0.1,0.5,0.1,1,0.1,1.5
								c0,5.1-4.2,9.2-9.3,9.1c-5.1,0-9.2-4.2-9.2-9.2c0-0.5,0.1-1,0.1-1.5C564.8,464.2,570.8,464.2,576.9,464.2z"/>
							<path id="XMLID_211_" fill-rule="evenodd" clip-rule="evenodd" fill="#D88364" d="M596.2,464.4c0.1,0.5,0.1,1,0.1,1.5
								c0,5.1-4.2,9.2-9.3,9.1c-5.1,0-9.2-4.2-9.2-9.2c0-0.5,0.1-1,0.1-1.5C584,464.3,590.1,464.3,596.2,464.4z"/>
							<path id="XMLID_210_" fill-rule="evenodd" clip-rule="evenodd" fill="#D88364" d="M615.5,464.5c0.1,0.5,0.1,1,0.1,1.5
								c-0.1,5.1-4.2,9.1-9.3,9.1c-5.1,0-9.2-4.2-9.2-9.2c0-0.5,0.1-1,0.1-1.5C603.3,464.4,609.4,464.5,615.5,464.5z"/>
							<path id="XMLID_209_" fill-rule="evenodd" clip-rule="evenodd" fill="#D88364" d="M634.7,464.7c0.1,0.5,0.1,1,0.1,1.5
								c-0.1,5.1-4.2,9.1-9.4,9.1c-5.1,0-9.2-4.2-9.2-9.3c0-0.5,0.1-1,0.1-1.5C622.6,464.6,628.7,464.6,634.7,464.7z"/>
							<path id="XMLID_208_" fill-rule="evenodd" clip-rule="evenodd" fill="#D88364" d="M654,464.9c0.1,0.5,0.1,1,0.1,1.5
								c-0.1,5.1-4.3,9.1-9.4,9.1c-5.1,0-9.2-4.2-9.1-9.3c0-0.5,0.1-1,0.1-1.5C641.8,464.7,647.9,464.8,654,464.9z"/>
							<path id="XMLID_207_" fill-rule="evenodd" clip-rule="evenodd" fill="#D88364" d="M673.3,465.1c0.1,0.5,0.1,1,0.1,1.5
								c-0.1,5.1-4.3,9.1-9.4,9.1c-5.1-0.1-9.2-4.2-9.1-9.3c0-0.5,0.1-1,0.1-1.5C661.1,464.9,667.2,465,673.3,465.1z"/>
							<path id="XMLID_206_" fill-rule="evenodd" clip-rule="evenodd" fill="#D88364" d="M692.5,465.3c0.1,0.5,0.1,1,0.1,1.5
								c-0.1,5.1-4.3,9.1-9.4,9.1c-5.1-0.1-9.2-4.2-9.1-9.3c0-0.5,0.1-1,0.2-1.5C680.4,465.1,686.5,465.2,692.5,465.3z"/>
							<path id="XMLID_205_" fill-rule="evenodd" clip-rule="evenodd" fill="#D88364" d="M711.8,465.6c0.1,0.5,0.1,1,0.1,1.5
								c-0.1,5.1-4.3,9.1-9.4,9.1c-5.1-0.1-9.2-4.2-9.1-9.3c0-0.5,0.1-1,0.2-1.5C699.6,465.4,705.7,465.5,711.8,465.6z"/>
						</g>
					</g>
				</g>
				<path id="XMLID_200_" fill-rule="evenodd" clip-rule="evenodd" fill="#F5A466" d="M408.9,412.5c22.9-12.8,45.8-25.5,68.9-38.2
					c22.6,12.7,45.2,25.4,67.6,38.1c-0.3,56.5-0.6,113-0.9,169.5c-44.9-0.2-89.8-0.2-134.7,0C409.5,525.5,409.2,469,408.9,412.5z"/>
				<path id="XMLID_199_" fill-rule="evenodd" clip-rule="evenodd" fill="#F18F42" d="M545.4,414c0,3.7,0,7.4-0.1,11.1
					c-4.2-2.3-8.5-4.7-12.7-7c-18.2-10-36.5-20.1-54.9-30c-18.3,10-36.6,20-54.9,30.1c-4.6,2.6-9.3,5.1-13.9,7.7
					c0-3.7,0-7.4-0.1-11.1c4.6-2.6,9.3-5.1,13.9-7.7c18.3-10,36.6-20.1,54.9-30.1c18.3,10,36.6,20,54.9,30
					C537,409.4,541.2,411.7,545.4,414z"/>
				<path id="XMLID_198_" fill-rule="evenodd" clip-rule="evenodd" fill="#B5675A" d="M477.8,374.3c18.3,10,36.7,20,54.9,30
					s36.5,20.1,54.7,30.2c-6.8,0-13.5-0.1-20.3-0.1c-11.5-6.4-22.9-12.7-34.4-19c-18.2-10-36.5-20.1-54.9-30
					c-18.3,10-36.6,20-54.9,30.1c-11.5,6.3-23,12.7-34.4,19c-6.8,0-13.5,0.1-20.3,0.1c18.2-10.1,36.4-20.2,54.7-30.2
					C441.1,394.3,459.5,384.3,477.8,374.3z"/>
				<path id="XMLID_197_" fill-rule="evenodd" clip-rule="evenodd" fill="#967460" d="M458.7,512.7c0,23,0.1,46.1,0.1,69.1
					c7.8,0,15.6,0,23.5,0c0-28,0-55.9,0-83.9c-9,0-20.7,3.8-23.2,12.3C458.9,511,458.7,511.8,458.7,512.7z"/>
				<g id="XMLID_193_">
					<path id="XMLID_196_" fill-rule="evenodd" clip-rule="evenodd" fill="#D37754" d="M449.5,512.6c0-1.1,0.2-2.2,0.5-3.3
						c3-10.1,16.2-15,27.2-15c11,0,24.3,4.8,27.2,15c0.3,1.1,0.5,2.2,0.5,3.4c0,0.1,0,0.2,0,0.3c0,23-0.1,45.9-0.1,68.9
						c-18.4,0-36.7,0-55.1,0C449.6,558.8,449.5,535.7,449.5,512.6C449.5,512.6,449.5,512.6,449.5,512.6z"/>
					<path id="XMLID_195_" fill-rule="evenodd" clip-rule="evenodd" fill="#9B7A64" d="M453.6,512.7c0,23,0.1,46.1,0.1,69.1
						c15.6,0,31.3,0,46.9,0c0-22.9,0.1-45.9,0.1-68.8c0-0.1,0-0.2,0-0.3c0-0.9-0.1-1.7-0.4-2.6c-2.4-8.4-14.2-12.3-23.2-12.3
						c-9,0-20.7,3.9-23.2,12.3C453.8,511,453.6,511.8,453.6,512.7z"/>
					<path id="XMLID_194_" fill-rule="evenodd" clip-rule="evenodd" fill="#8C6B54" d="M475.7,581.8c0.5,0,1,0,1.5,0
						c0-28,0-55.9,0-83.9c-0.5,0-1,0-1.5,0C475.7,525.9,475.7,553.8,475.7,581.8z"/>
				</g>
				<g id="XMLID_189_">
					<path id="XMLID_192_" fill-rule="evenodd" clip-rule="evenodd" fill="#D37754" d="M311.6,490.8c0-0.5,0.1-1,0.2-1.5
						c1.3-4.7,7.4-7,12.4-7c5.1,0,11.2,2.1,12.6,6.8c0.2,0.5,0.2,1,0.3,1.6c0,0,0,0.1,0,0.1c0.1,10.6,0.2,21.1,0.3,31.7
						c-8.5,0.1-17,0.1-25.5,0.2C311.9,512,311.8,501.4,311.6,490.8C311.6,490.8,311.6,490.8,311.6,490.8z"/>
					<path id="XMLID_191_" fill-rule="evenodd" clip-rule="evenodd" fill="#DEEDEE" d="M313.7,490.8L313.7,490.8
						c0.1-3.7,4.8-6.7,10.7-6.8c5.9-0.1,10.7,2.9,10.8,6.6h0c0,0,0,0.1,0,0.1c0.1,10,0.2,19.9,0.3,29.9c-7.1,0.1-14.3,0.1-21.4,0.2
						c-0.1-10-0.3-19.9-0.4-29.9C313.7,490.9,313.7,490.9,313.7,490.8z"/>
					<path id="XMLID_190_" fill-rule="evenodd" clip-rule="evenodd" fill="#D37754" d="M312.7,495.7c3.6,0,7.1-0.1,10.7-0.1
						c-0.1-4.2-0.1-8.5-0.2-12.7c0.7,0,1.4,0,2.1,0c0,4.2,0.1,8.5,0.1,12.7c3.6,0,7.1-0.1,10.7-0.1c0,0.5,0,0.9,0,1.4
						c-3.6,0-7.1,0.1-10.7,0.1c0,3.6,0.1,7.2,0.1,10.8c3.6,0,7.1-0.1,10.7-0.1c0,0.5,0,0.9,0,1.4c-3.6,0-7.1,0.1-10.7,0.1
						c0.1,4.4,0.1,8.9,0.2,13.3c-0.7,0-1.4,0-2.1,0c-0.1-4.4-0.1-8.9-0.2-13.3c-3.6,0-7.1,0.1-10.7,0.1c0-0.5,0-0.9,0-1.4
						c3.6,0,7.1-0.1,10.7-0.1c0-3.6-0.1-7.2-0.1-10.8c-3.6,0-7.1,0.1-10.7,0.1C312.7,496.6,312.7,496.2,312.7,495.7z"/>
				</g>
				<g id="XMLID_185_">
					<path id="XMLID_188_" fill-rule="evenodd" clip-rule="evenodd" fill="#D37754" d="M358.6,490.4c0-0.5,0.1-1,0.2-1.5
						c1.3-4.7,7.4-6.9,12.5-7c5.1,0,11.2,2.2,12.6,6.8c0.2,0.5,0.2,1,0.3,1.6c0,0,0,0.1,0,0.1c0.1,10.6,0.2,21.1,0.2,31.7
						c-8.5,0-17,0.1-25.5,0.2C358.8,511.6,358.7,501,358.6,490.4C358.6,490.4,358.6,490.4,358.6,490.4z"/>
					<path id="XMLID_187_" fill-rule="evenodd" clip-rule="evenodd" fill="#DEEDEE" d="M360.7,490.4L360.7,490.4
						c0.1-3.7,4.8-6.7,10.7-6.8c5.9,0,10.7,2.9,10.8,6.6c0,0,0,0,0,0c0,0,0,0.1,0,0.1c0.1,10,0.1,19.9,0.2,29.9
						c-7.1,0-14.3,0.1-21.4,0.1c-0.1-10-0.2-19.9-0.3-29.9C360.7,490.5,360.7,490.5,360.7,490.4z"/>
					<path id="XMLID_186_" fill-rule="evenodd" clip-rule="evenodd" fill="#D37754" d="M359.7,495.3c3.6,0,7.1,0,10.7-0.1
						c0-4.2-0.1-8.5-0.1-12.7c0.7,0,1.4,0,2.1,0c0,4.2,0.1,8.5,0.1,12.7c3.6,0,7.1,0,10.7-0.1c0,0.5,0,0.9,0,1.4
						c-3.6,0-7.1,0-10.7,0.1c0,3.6,0.1,7.2,0.1,10.8c3.6,0,7.1,0,10.7-0.1c0,0.5,0,0.9,0,1.4c-3.6,0-7.1,0-10.7,0.1
						c0,4.4,0.1,8.9,0.1,13.3c-0.7,0-1.4,0-2.1,0c0-4.4-0.1-8.9-0.1-13.3c-3.6,0-7.1,0-10.7,0.1c0-0.5,0-0.9,0-1.4
						c3.6,0,7.1,0,10.7-0.1c0-3.6-0.1-7.2-0.1-10.8c-3.6,0-7.1,0-10.7,0.1C359.7,496.2,359.7,495.8,359.7,495.3z"/>
				</g>
				<g id="XMLID_181_">
					<path id="XMLID_184_" fill-rule="evenodd" clip-rule="evenodd" fill="#D37754" d="M312.3,538.8c0-0.5,0.1-1,0.2-1.5
						c1.3-4.7,7.3-7,12.4-7c5,0,11.2,2.1,12.6,6.8c0.2,0.5,0.2,1,0.3,1.6c0,0,0,0.1,0,0.1c0.1,10.6,0.2,21.1,0.3,31.7
						c-8.5,0.1-16.9,0.1-25.4,0.2C312.5,560.1,312.4,549.5,312.3,538.8C312.3,538.9,312.3,538.9,312.3,538.8z"/>
					<path id="XMLID_183_" fill-rule="evenodd" clip-rule="evenodd" fill="#DEEDEE" d="M314.3,538.9L314.3,538.9
						c0.1-3.7,4.8-6.7,10.6-6.8c5.9-0.1,10.6,2.9,10.8,6.6c0,0,0,0,0,0c0,0,0,0.1,0,0.1c0.1,10,0.2,19.9,0.3,29.9
						c-7.1,0.1-14.2,0.1-21.3,0.2c-0.1-10-0.3-19.9-0.4-29.9C314.3,539,314.3,538.9,314.3,538.9z"/>
					<path id="XMLID_182_" fill-rule="evenodd" clip-rule="evenodd" fill="#D37754" d="M313.3,543.7c3.6,0,7.1-0.1,10.7-0.1
						c-0.1-4.2-0.1-8.5-0.2-12.7c0.7,0,1.4,0,2.1,0c0,4.2,0.1,8.5,0.1,12.7c3.6,0,7.1-0.1,10.7-0.1c0,0.5,0,0.9,0,1.4
						c-3.6,0-7.1,0.1-10.7,0.1c0,3.6,0.1,7.2,0.1,10.8c3.6,0,7.1-0.1,10.7-0.1c0,0.5,0,0.9,0,1.4c-3.6,0-7.1,0.1-10.7,0.1
						c0.1,4.4,0.1,8.9,0.2,13.3c-0.7,0-1.4,0-2.1,0c-0.1-4.4-0.1-8.9-0.2-13.3c-3.6,0-7.1,0.1-10.7,0.1c0-0.5,0-0.9,0-1.4
						c3.6,0,7.1-0.1,10.7-0.1c0-3.6-0.1-7.2-0.1-10.8c-3.6,0-7.1,0.1-10.7,0.1C313.3,544.7,313.3,544.2,313.3,543.7z"/>
				</g>
				<g id="XMLID_177_">
					<path id="XMLID_180_" fill-rule="evenodd" clip-rule="evenodd" fill="#D37754" d="M359.1,538.5c0-0.5,0.1-1,0.2-1.5
						c1.3-4.7,7.4-6.9,12.4-7c5,0,11.1,2.2,12.5,6.8c0.2,0.5,0.2,1,0.3,1.6c0,0,0,0.1,0,0.1c0.1,10.6,0.2,21.1,0.2,31.7
						c-8.5,0-16.9,0.1-25.4,0.2C359.3,559.7,359.2,549.1,359.1,538.5C359.1,538.5,359.1,538.5,359.1,538.5z"/>
					<path id="XMLID_179_" fill-rule="evenodd" clip-rule="evenodd" fill="#DEEDEE" d="M361.1,538.5
						C361.1,538.5,361.1,538.5,361.1,538.5c0.1-3.7,4.8-6.7,10.6-6.8c5.9,0,10.6,2.9,10.8,6.6h0c0,0,0,0.1,0,0.1
						c0.1,10,0.1,19.9,0.2,29.9c-7.1,0-14.2,0.1-21.3,0.1c-0.1-10-0.2-19.9-0.3-29.9C361.1,538.6,361.1,538.5,361.1,538.5z"/>
					<path id="XMLID_178_" fill-rule="evenodd" clip-rule="evenodd" fill="#D37754" d="M360.1,543.3c3.6,0,7.1,0,10.7-0.1
						c0-4.2-0.1-8.5-0.1-12.7c0.7,0,1.4,0,2.1,0c0,4.2,0.1,8.5,0.1,12.7c3.6,0,7.1,0,10.7-0.1c0,0.5,0,0.9,0,1.4
						c-3.6,0-7.1,0-10.7,0.1c0,3.6,0.1,7.2,0.1,10.8c3.6,0,7.1,0,10.7-0.1c0,0.5,0,0.9,0,1.4c-3.6,0-7.1,0-10.7,0.1
						c0,4.4,0.1,8.9,0.1,13.3c-0.7,0-1.4,0-2.1,0c0-4.4-0.1-8.9-0.1-13.3c-3.6,0-7.1,0-10.7,0.1c0-0.5,0-0.9,0-1.4
						c3.6,0,7.1,0,10.7-0.1c0-3.6-0.1-7.2-0.1-10.8c-3.6,0-7.1,0-10.7,0.1C360.1,544.3,360.1,543.8,360.1,543.3z"/>
				</g>
				<g id="XMLID_173_">
					<path id="XMLID_176_" fill-rule="evenodd" clip-rule="evenodd" fill="#D37754" d="M570.2,490.2c0-0.5,0.1-1,0.3-1.5
						c1.4-4.7,7.5-6.8,12.6-6.8c5.1,0,11.1,2.3,12.5,7c0.1,0.5,0.2,1,0.2,1.6c0,0,0,0.1,0,0.1c-0.1,10.6-0.2,21.1-0.3,31.7
						c-8.5-0.1-17-0.1-25.5-0.2C570.1,511.5,570.2,500.9,570.2,490.2C570.2,490.2,570.2,490.2,570.2,490.2z"/>
					<path id="XMLID_175_" fill-rule="evenodd" clip-rule="evenodd" fill="#DEEDEE" d="M572.3,490.3L572.3,490.3
						c0.1-3.7,4.9-6.7,10.8-6.6c5.9,0,10.6,3.1,10.7,6.8c0,0,0,0,0,0c0,0,0,0.1,0,0.1c-0.1,10-0.2,19.9-0.3,29.9
						c-7.1,0-14.3-0.1-21.4-0.1c0.1-10,0.1-19.9,0.2-29.9C572.3,490.4,572.3,490.3,572.3,490.3z"/>
					<path id="XMLID_174_" fill-rule="evenodd" clip-rule="evenodd" fill="#D37754" d="M571.2,495.1c3.6,0,7.1,0,10.7,0.1
						c0-4.2,0.1-8.5,0.1-12.7c0.7,0,1.4,0,2.1,0c0,4.2-0.1,8.5-0.1,12.7c3.6,0,7.1,0,10.7,0.1c0,0.5,0,0.9,0,1.4
						c-3.6,0-7.1,0-10.7-0.1c0,3.6-0.1,7.2-0.1,10.8c3.6,0,7.1,0,10.7,0.1c0,0.5,0,0.9,0,1.4c-3.6,0-7.1,0-10.7-0.1
						c0,4.4-0.1,8.9-0.1,13.3c-0.7,0-1.4,0-2.1,0c0-4.4,0.1-8.9,0.1-13.3c-3.6,0-7.1,0-10.7-0.1c0-0.5,0-0.9,0-1.4
						c3.6,0,7.1,0,10.7,0.1c0-3.6,0.1-7.2,0.1-10.8c-3.6,0-7.1,0-10.7-0.1C571.2,496.1,571.2,495.6,571.2,495.1z"/>
				</g>
				<g id="XMLID_169_">
					<path id="XMLID_172_" fill-rule="evenodd" clip-rule="evenodd" fill="#D37754" d="M617.2,490.6c0-0.5,0.1-1,0.3-1.5
						c1.4-4.6,7.5-6.8,12.6-6.8c5.1,0,11.1,2.3,12.4,7c0.1,0.5,0.2,1,0.2,1.6c0,0,0,0.1,0,0.1c-0.1,10.6-0.3,21.1-0.4,31.7
						c-8.5-0.1-17-0.2-25.5-0.2C617,511.8,617.1,501.2,617.2,490.6C617.2,490.6,617.2,490.6,617.2,490.6z"/>
					<path id="XMLID_171_" fill-rule="evenodd" clip-rule="evenodd" fill="#DEEDEE" d="M619.3,490.6L619.3,490.6
						c0.1-3.7,4.9-6.7,10.8-6.6c5.9,0.1,10.6,3.1,10.7,6.8h0c0,0,0,0.1,0,0.1c-0.1,10-0.2,19.9-0.4,29.9c-7.1-0.1-14.3-0.1-21.4-0.2
						c0.1-10,0.2-19.9,0.3-29.9C619.3,490.7,619.3,490.7,619.3,490.6z"/>
					<path id="XMLID_170_" fill-rule="evenodd" clip-rule="evenodd" fill="#D37754" d="M618.2,495.5c3.6,0,7.1,0.1,10.7,0.1
						c0-4.2,0.1-8.5,0.1-12.7c0.7,0,1.4,0,2.1,0c0,4.2-0.1,8.5-0.1,12.7c3.6,0,7.1,0.1,10.7,0.1c0,0.5,0,0.9,0,1.4
						c-3.6,0-7.1-0.1-10.7-0.1c0,3.6-0.1,7.2-0.1,10.8c3.6,0,7.1,0.1,10.7,0.1c0,0.5,0,0.9,0,1.4c-3.6,0-7.1-0.1-10.7-0.1
						c-0.1,4.4-0.1,8.9-0.2,13.3c-0.7,0-1.4,0-2.1,0c0.1-4.4,0.1-8.9,0.2-13.3c-3.6,0-7.1-0.1-10.7-0.1c0-0.5,0-0.9,0-1.4
						c3.6,0,7.1,0.1,10.7,0.1c0-3.6,0.1-7.2,0.1-10.8c-3.6,0-7.1-0.1-10.7-0.1C618.2,496.4,618.2,495.9,618.2,495.5z"/>
				</g>
				<g id="XMLID_165_">
					<path id="XMLID_168_" fill-rule="evenodd" clip-rule="evenodd" fill="#D37754" d="M569.9,538.3c0-0.5,0.1-1,0.3-1.5
						c1.4-4.7,7.5-6.8,12.5-6.8c5,0,11.1,2.3,12.4,7c0.1,0.5,0.2,1,0.2,1.6c0,0,0,0.1,0,0.1c-0.1,10.6-0.2,21.1-0.3,31.7
						c-8.5-0.1-16.9-0.1-25.4-0.2C569.8,559.5,569.8,548.9,569.9,538.3C569.9,538.3,569.9,538.3,569.9,538.3z"/>
					<path id="XMLID_167_" fill-rule="evenodd" clip-rule="evenodd" fill="#DEEDEE" d="M571.9,538.3L571.9,538.3
						c0.1-3.7,4.9-6.7,10.8-6.6c5.9,0,10.6,3.1,10.6,6.8c0,0,0,0,0,0c0,0,0,0.1,0,0.1c-0.1,10-0.2,19.9-0.3,29.9
						c-7.1,0-14.2-0.1-21.3-0.1c0.1-10,0.1-19.9,0.2-29.9C571.9,538.4,571.9,538.4,571.9,538.3z"/>
					<path id="XMLID_166_" fill-rule="evenodd" clip-rule="evenodd" fill="#D37754" d="M570.9,543.2c3.6,0,7.1,0,10.7,0.1
						c0-4.2,0.1-8.5,0.1-12.7c0.7,0,1.4,0,2.1,0c0,4.2-0.1,8.5-0.1,12.7c3.6,0,7.1,0,10.7,0.1c0,0.5,0,0.9,0,1.4
						c-3.6,0-7.1,0-10.7-0.1c0,3.6-0.1,7.2-0.1,10.8c3.6,0,7.1,0,10.7,0.1c0,0.5,0,0.9,0,1.4c-3.6,0-7.1,0-10.7-0.1
						c0,4.4-0.1,8.9-0.1,13.3c-0.7,0-1.4,0-2.1,0c0-4.4,0.1-8.9,0.1-13.3c-3.6,0-7.1,0-10.7-0.1c0-0.5,0-0.9,0-1.4
						c3.6,0,7.1,0,10.7,0.1c0-3.6,0.1-7.2,0.1-10.8c-3.6,0-7.1,0-10.7-0.1C570.9,544.1,570.9,543.7,570.9,543.2z"/>
				</g>
				<g id="XMLID_161_">
					<path id="XMLID_164_" fill-rule="evenodd" clip-rule="evenodd" fill="#D37754" d="M616.7,538.6c0-0.5,0.1-1,0.3-1.5
						c1.4-4.6,7.5-6.8,12.6-6.8c5,0,11.1,2.3,12.4,7c0.1,0.5,0.2,1,0.2,1.6c0,0,0,0.1,0,0.1c-0.1,10.6-0.3,21.1-0.4,31.7
						c-8.5-0.1-16.9-0.2-25.4-0.2C616.5,559.8,616.6,549.2,616.7,538.6C616.7,538.6,616.7,538.6,616.7,538.6z"/>
					<path id="XMLID_163_" fill-rule="evenodd" clip-rule="evenodd" fill="#DEEDEE" d="M618.7,538.7
						C618.7,538.7,618.7,538.7,618.7,538.7c0.1-3.7,4.9-6.7,10.8-6.6c5.9,0.1,10.6,3.1,10.6,6.8h0c0,0,0,0.1,0,0.1
						c-0.1,10-0.2,19.9-0.4,29.9c-7.1-0.1-14.2-0.1-21.3-0.2c0.1-10,0.2-19.9,0.3-29.9C618.7,538.7,618.7,538.7,618.7,538.7z"/>
					<path id="XMLID_162_" fill-rule="evenodd" clip-rule="evenodd" fill="#D37754" d="M617.7,543.5c3.6,0,7.1,0.1,10.7,0.1
						c0-4.2,0.1-8.5,0.1-12.7c0.7,0,1.4,0,2.1,0c0,4.2-0.1,8.5-0.1,12.7c3.6,0,7.1,0.1,10.7,0.1c0,0.5,0,0.9,0,1.4
						c-3.6,0-7.1-0.1-10.7-0.1c0,3.6-0.1,7.2-0.1,10.8c3.6,0,7.1,0.1,10.7,0.1c0,0.5,0,0.9,0,1.4c-3.6,0-7.1-0.1-10.7-0.1
						c-0.1,4.4-0.1,8.9-0.2,13.3c-0.7,0-1.4,0-2.1,0c0.1-4.4,0.1-8.9,0.2-13.3c-3.6,0-7.1-0.1-10.7-0.1c0-0.5,0-0.9,0-1.4
						c3.6,0,7.1,0.1,10.7,0.1c0-3.6,0.1-7.2,0.1-10.8c-3.6,0-7.1-0.1-10.7-0.1C617.7,544.4,617.7,544,617.7,543.5z"/>
				</g>
				<path id="XMLID_160_" fill-rule="evenodd" clip-rule="evenodd" fill="#F6A76E" d="M310.6,525.7c9.5-0.1,18.9-0.2,28.4-0.3
					c0-1,0-2,0-3c-9.5,0.1-18.9,0.2-28.4,0.3C310.6,523.7,310.6,524.7,310.6,525.7z"/>
				<path id="XMLID_159_" fill-rule="evenodd" clip-rule="evenodd" fill="#F6A76E" d="M357.9,573.3c9.4-0.1,18.8-0.1,28.3-0.2
					c0-1,0-2,0-3c-9.4,0.1-18.9,0.1-28.3,0.2C357.9,571.3,357.9,572.3,357.9,573.3z"/>
				<path id="XMLID_158_" fill-rule="evenodd" clip-rule="evenodd" fill="#F6A76E" d="M357.5,525c9.5-0.1,18.9-0.1,28.4-0.2
					c0-1,0-2,0-3c-9.5,0.1-18.9,0.1-28.4,0.2C357.5,523,357.5,524,357.5,525z"/>
				<path id="XMLID_157_" fill-rule="evenodd" clip-rule="evenodd" fill="#F6A76E" d="M568.5,524.9c9.5,0.1,18.9,0.1,28.4,0.2
					c0-1,0-2,0-3c-9.5-0.1-18.9-0.1-28.4-0.2C568.6,522.9,568.5,523.9,568.5,524.9z"/>
				<path id="XMLID_156_" fill-rule="evenodd" clip-rule="evenodd" fill="#F6A76E" d="M615.4,525.2c9.5,0.1,18.9,0.2,28.4,0.3
					c0-1,0-2,0-3c-9.5-0.1-18.9-0.2-28.4-0.3C615.4,523.2,615.4,524.2,615.4,525.2z"/>
				<path id="XMLID_155_" fill-rule="evenodd" clip-rule="evenodd" fill="#F6A76E" d="M568.2,573c9.4,0,18.8,0.1,28.3,0.2
					c0-1,0-2,0-3c-9.4-0.1-18.9-0.1-28.3-0.2C568.2,571,568.2,572,568.2,573z"/>
				<path id="XMLID_154_" fill-rule="evenodd" clip-rule="evenodd" fill="#F6A76E" d="M614.9,573.3c9.4,0.1,18.8,0.2,28.3,0.3
					c0-1,0-2,0-3c-9.4-0.1-18.9-0.2-28.3-0.3C614.9,571.3,614.9,572.3,614.9,573.3z"/>
				<path id="XMLID_153_" fill-rule="evenodd" clip-rule="evenodd" fill="#F2825B" d="M250.7,597c151-2,302.1-2.1,453.1,0
					c0.1-4.6,0.2-9.1,0.2-13.7c-151.2-2-302.4-2-453.6,0C250.5,587.9,250.6,592.5,250.7,597z"/>
				<path id="XMLID_146_" fill-rule="evenodd" clip-rule="evenodd" fill="#EF6E46" d="M703.9,590.1c0,2.3-0.1,4.6-0.1,6.8
					c-151-2-302.1-2-453.1,0c0-2.3-0.1-4.6-0.1-6.8C401.7,588.1,552.8,588.1,703.9,590.1z"/>
				<path id="XMLID_145_" fill-rule="evenodd" clip-rule="evenodd" fill="#A86152" d="M408.1,588.8c46.3-0.2,92.6-0.2,138.9,0
					c0-2.3,0-4.6,0-6.8c-46.3-0.2-92.7-0.2-139,0C408.1,584.2,408.1,586.5,408.1,588.8z"/>
				<path id="XMLID_144_" fill-rule="evenodd" clip-rule="evenodd" fill="#B5675A" d="M391.4,595.7c57.2-0.3,114.4-0.3,171.6,0
					c0-2.3,0-4.6,0-6.8c-57.2-0.3-114.4-0.3-171.7,0C391.4,591.2,391.4,593.4,391.4,595.7z"/>
				<g id="XMLID_70_">
					<g id="XMLID_77_">
						<path id="XMLID_88_" fill-rule="evenodd" clip-rule="evenodd" fill="#D37754" d="M489,441.1c0-0.6,0.1-1.1,0.3-1.7
							c1.5-5,8.1-7.4,13.6-7.4c5.5,0,12.1,2.4,13.6,7.5c0.2,0.6,0.2,1.1,0.3,1.7c0,0.1,0,0.1,0,0.2c0,11.4-0.1,22.8-0.1,34.3
							c-9.2,0-18.4,0-27.7,0C489,464,489,452.5,489,441.1C489,441.1,489,441.1,489,441.1z"/>
						<path id="XMLID_87_" fill-rule="evenodd" clip-rule="evenodd" fill="#DEEDEE" d="M491.2,441.1L491.2,441.1
							c0.1-4,5.3-7.2,11.7-7.2c6.4,0,11.5,3.3,11.6,7.3c0,0,0,0,0,0c0,0,0,0.1,0,0.1c0,10.8-0.1,21.6-0.1,32.4c-7.8,0-15.5,0-23.3,0
							c0-10.8,0-21.6,0-32.4C491.2,441.2,491.2,441.1,491.2,441.1z"/>
						<path id="XMLID_78_" fill-rule="evenodd" clip-rule="evenodd" fill="#D37754" d="M490.1,446.4c3.9,0,7.8,0,11.6,0
							c0-4.6,0-9.2,0-13.8c0.8,0,1.5,0,2.3,0c0,4.6,0,9.2,0,13.8c3.9,0,7.8,0,11.6,0c0,0.5,0,1,0,1.5c-3.9,0-7.8,0-11.6,0
							c0,3.9,0,7.8,0,11.7c3.9,0,7.7,0,11.6,0c0,0.5,0,1,0,1.5c-3.9,0-7.7,0-11.6,0c0,4.8,0,9.6,0,14.4c-0.8,0-1.5,0-2.3,0
							c0-4.8,0-9.6,0-14.4c-3.9,0-7.7,0-11.6,0c0-0.5,0-1,0-1.5c3.9,0,7.7,0,11.6,0c0-3.9,0-7.8,0-11.7c-3.9,0-7.8,0-11.6,0
							C490.1,447.4,490.1,446.9,490.1,446.4z"/>
					</g>
					<g id="XMLID_73_">
						<path id="XMLID_76_" fill-rule="evenodd" clip-rule="evenodd" fill="#D37754" d="M437.6,441.1c0-0.6,0.1-1.1,0.3-1.7
							c1.5-5,8.1-7.5,13.6-7.5c5.5,0,12.1,2.4,13.6,7.4c0.2,0.6,0.3,1.1,0.3,1.7c0,0.1,0,0.1,0,0.2c0,11.4,0,22.8,0,34.3
							c-9.2,0-18.4,0-27.7,0C437.7,464.1,437.7,452.6,437.6,441.1C437.6,441.1,437.6,441.1,437.6,441.1z"/>
						<path id="XMLID_75_" fill-rule="evenodd" clip-rule="evenodd" fill="#DEEDEE" d="M439.8,441.1L439.8,441.1
							c0.1-4,5.3-7.3,11.6-7.3c6.4,0,11.6,3.2,11.7,7.2h0c0,0,0,0.1,0,0.1c0,10.8,0,21.6,0,32.4c-7.8,0-15.5,0-23.3,0
							c0-10.8-0.1-21.6-0.1-32.4C439.8,441.2,439.8,441.2,439.8,441.1z"/>
						<path id="XMLID_74_" fill-rule="evenodd" clip-rule="evenodd" fill="#D37754" d="M438.7,446.4c3.9,0,7.8,0,11.6,0
							c0-4.6,0-9.2,0-13.8c0.8,0,1.5,0,2.3,0c0,4.6,0,9.2,0,13.8c3.9,0,7.8,0,11.6,0c0,0.5,0,1,0,1.5c-3.9,0-7.8,0-11.6,0
							c0,3.9,0,7.8,0,11.7c3.9,0,7.7,0,11.6,0c0,0.5,0,1,0,1.5c-3.9,0-7.7,0-11.6,0c0,4.8,0,9.6,0,14.4c-0.8,0-1.5,0-2.3,0
							c0-4.8,0-9.6,0-14.4c-3.9,0-7.7,0-11.6,0c0-0.5,0-1,0-1.5c3.9,0,7.7,0,11.6,0c0-3.9,0-7.8,0-11.7c-3.9,0-7.8,0-11.6,0
							C438.8,447.4,438.8,446.9,438.7,446.4z"/>
					</g>
					<path id="XMLID_72_" fill-rule="evenodd" clip-rule="evenodd" fill="#F18D42" d="M436.2,478.4c10.3,0,20.5,0,30.8,0
						c0-1,0-2,0-3c-10.3,0-20.5,0-30.8,0C436.2,476.4,436.2,477.4,436.2,478.4z"/>
					<path id="XMLID_71_" fill-rule="evenodd" clip-rule="evenodd" fill="#F18D42" d="M487.5,478.5c10.3,0,20.5,0,30.8,0
						c0-1,0-2,0-3c-10.3,0-20.5,0-30.8,0C487.5,476.5,487.5,477.5,487.5,478.5z"/>
				</g>
			</g>
			<g>
				<g id="XMLID_68_">
					<defs>
						<path id="XMLID_69_" d="M327.8,404.9c99.6-0.9,199.2-0.9,298.8,0c25.8,20.2,51.5,40.4,77,60.6c-150.9-2-301.9-2-452.8,0
							C276.4,445.3,302,425.1,327.8,404.9z"/>
					</defs>
					<clipPath id="XMLID_23_">
						<use xlink:href="#XMLID_69_"  overflow="visible"/>
					</clipPath>
				</g>
			</g>
		</g>
		<g>
			<g>
				<g id="XMLID_12_">
					<defs>
						<path id="XMLID_67_" d="M327.8,404.9c99.6-0.9,199.2-0.9,298.8,0c25.8,20.2,51.5,40.4,77,60.6c-150.9-2-301.9-2-452.8,0
							C276.4,445.3,302,425.1,327.8,404.9z"/>
					</defs>
					<clipPath id="XMLID_24_">
						<use xlink:href="#XMLID_67_"  overflow="visible"/>
					</clipPath>
				</g>
			</g>
			<g>
				<g id="XMLID_10_">
					<defs>
						<path id="XMLID_11_" d="M327.8,404.9c99.6-0.9,199.2-0.9,298.8,0c25.8,20.2,51.5,40.4,77,60.6c-150.9-2-301.9-2-452.8,0
							C276.4,445.3,302,425.1,327.8,404.9z"/>
					</defs>
					<clipPath id="XMLID_25_">
						<use xlink:href="#XMLID_11_"  overflow="visible"/>
					</clipPath>
				</g>
			</g>
			<g>
				<g id="XMLID_8_">
					<defs>
						<path id="XMLID_9_" d="M327.8,404.9c99.6-0.9,199.2-0.9,298.8,0c25.8,20.2,51.5,40.4,77,60.6c-150.9-2-301.9-2-452.8,0
							C276.4,445.3,302,425.1,327.8,404.9z"/>
					</defs>
					<clipPath id="XMLID_26_">
						<use xlink:href="#XMLID_9_"  overflow="visible"/>
					</clipPath>
				</g>
			</g>
		</g>
	</g>
	<g id="XMLID_81_">
		<path id="XMLID_6_" fill-rule="evenodd" clip-rule="evenodd" fill="#A5C74D" d="M1098.5,551.8c-123.8,6.6-35.4-97.6-9.8-131.2
			C1108.3,443.2,1210.5,545.9,1098.5,551.8z"/>
		<path id="XMLID_5_" fill-rule="evenodd" clip-rule="evenodd" fill="#B8CD49" d="M1036.8,532.4c-14.2-30.2,33.5-87.8,51.9-111.7
			c31.7,35.7,93.2,113.3-3.1,118.4C1062.6,540.3,1046.9,537.7,1036.8,532.4z"/>
		<path id="XMLID_4_" fill-rule="evenodd" clip-rule="evenodd" fill="#C4D356" d="M1088.7,420.7c22.7,25.5,60.7,72.6,45.1,99.1
			c-3.6,0.5-7.6,0.9-11.8,1.1C1025.8,526,1057.7,464.2,1088.7,420.7z"/>
		<path id="XMLID_3_" fill-rule="evenodd" clip-rule="evenodd" fill="#B3664F" d="M1094.6,517.2l0.3,8.3l12.3-9.9l0.3-12.2l1.1,11.2
			l11.6-9.2l-17.1,16l15.1-3.5l-16.4,4.7l-6.7,6.3l0.4,11.7l0,0l0,0l1.9,55.7c0.2,2-11.3,2.2-10.8,0l2-57.9l-11.3-10.6l-16.6-6.1
			l15,4.6l-12.1-11.3l9.4,7.5l0.4-11.1l1,12.2l14.2,11.4l0.6-17.9l0.6-10.5l-9.4-13.1l9.5,11l2.3-41.6L1094.6,517.2z"/>
		<path id="XMLID_2_" fill-rule="evenodd" clip-rule="evenodd" fill="#B3664F" d="M1092.1,597.8c-2.9,0.1-5.9-0.4-5.6-1.6l2-57.9
			l-11.3-10.6l-16.6-6.1l15,4.6l-12.1-11.3l9.4,7.5l0.4-11.1l1,12.2l14.2,11.4l0.6-17.9l0.6-10.5l-9.4-13.1l9.5,11l2.2-40.5V597.8z"
			/>
		<path id="XMLID_1_" fill-rule="evenodd" clip-rule="evenodd" fill="#A05A44" d="M1092.1,597.8c-2.9,0.1-5.9-0.4-5.6-1.6l2.7-79
			l2.9-53v34.1l12.5-14.4l-11.5,16l-0.9-0.3l-0.1,0V597.8z"/>
	</g>
	<g id="XMLID_82_">
		<path id="XMLID_143_" fill-rule="evenodd" clip-rule="evenodd" fill="#A5C74D" d="M959.9,551c-130.5,6.9-37.4-103-10.3-138.3
			C970.2,436.3,1078,544.7,959.9,551z"/>
		<path id="XMLID_18_" fill-rule="evenodd" clip-rule="evenodd" fill="#B8CD49" d="M894.9,530.5c-15-31.9,35.3-92.6,54.7-117.8
			c33.4,37.6,98.3,119.5-3.3,124.9C922.1,538.8,905.6,536,894.9,530.5z"/>
		<path id="XMLID_17_" fill-rule="evenodd" clip-rule="evenodd" fill="#C4D356" d="M949.6,412.6c24,26.9,64,76.5,47.5,104.5
			c-3.8,0.5-8,0.9-12.5,1.2C883.2,523.7,916.9,458.5,949.6,412.6z"/>
		<path id="XMLID_16_" fill-rule="evenodd" clip-rule="evenodd" fill="#B3664F" d="M955.8,514.4l0.3,8.8l13-10.4l0.3-12.9l1.1,11.8
			l12.2-9.8l-18,16.9l15.9-3.7l-17.3,5l-7.1,6.6l0.4,12.3l0,0l0,0l2,58.7c0.2,2.1-11.9,2.3-11.4,0l2.1-61.1l-11.9-11.1l-17.5-6.4
			l15.8,4.8L923,512.1l9.9,7.9l0.4-11.7l1.1,12.9l15,12l0.6-18.8l0.6-11l-9.9-13.8l10,11.6l2.4-43.9L955.8,514.4z"/>
		<path id="XMLID_15_" fill-rule="evenodd" clip-rule="evenodd" fill="#B3664F" d="M953.2,599.4c-3.1,0.1-6.2-0.4-5.9-1.6l2.1-61.1
			l-11.9-11.1l-17.5-6.4l15.8,4.8L923,512.1l9.9,7.9l0.4-11.7l1.1,12.9l15,12l0.6-18.8l0.6-11l-9.9-13.8l10,11.6l2.3-42.7V599.4z"/>
		<path id="XMLID_14_" fill-rule="evenodd" clip-rule="evenodd" fill="#A05A44" d="M953.2,599.4c-3.1,0.1-6.2-0.4-5.9-1.6l2.9-83.4
			l3.1-55.9v35.9l13.1-15.2l-12.1,16.9l-1-0.3l-0.1,0V599.4z"/>
	</g>
	<linearGradient id="SVGID_1_" gradientUnits="userSpaceOnUse" x1="660.5645" y1="473.179" x2="660.5645" y2="707.8381">
		<stop  offset="0" style="stop-color:#E4E227"/>
		<stop  offset="1" style="stop-color:#9FC942"/>
	</linearGradient>
	<path fill-rule="evenodd" clip-rule="evenodd" fill="url(#SVGID_1_)" d="M1320.1,592.7c-205.4-5.6-426.6-8.8-659.5-8.8
		S204.1,587,1.1,592.7V737h1319V592.7z"/>
	<g>
		<path fill-rule="evenodd" clip-rule="evenodd" fill="#F7F2F2" d="M437.8,585C437.8,585,437.7,585.1,437.8,585
			c0,11.6,90.6,20.9,202.5,20.9s202.5-9.3,202.5-20.8c0-0.1-0.1-0.3-0.1-0.4c-60.1-0.5-121-0.7-182.7-0.7
			C584.7,583.9,510.5,584.3,437.8,585z"/>
	</g>
	<path id="XMLID_494_" fill-rule="evenodd" clip-rule="evenodd" fill="#FFF100" d="M994.7,613c3-0.6,2.8-1.9-0.6-2.5
		c-2.1-0.4-8.5,0.3-10.6,1.2l0,0c-0.2-0.3-0.7-0.6-1.3-0.8c1.3-1.1,1.8-3.4,1.2-3.9c-1.3-1.2-4.8-1.4-6.6-0.1c-1,0.7,0,3,2,4.1
		c-0.3,0.1-0.6,0.2-0.8,0.3c-2-1-7.9-2.3-9.3-2.3c-3.4-0.1-4.8,1.1-2.4,2.3c1.5,0.7,8.2,1.4,11.1,1c0.1,0.2,0.2,0.3,0.4,0.5
		c-2.8,0.1-8.4,1.8-8.9,2.4c-1.2,1.2,1.2,2.2,4.8,1.9c2-0.2,5.1-1.9,5.7-3.1c0.1-0.1,0.2-0.2,0.3-0.3l0,0c0.1,0,0.3,0,0.5,0
		c0.2,0,0.3,0,0.5,0c-0.5,1.1,1.8,3.8,2.9,4.2c2.5,1,5.7,0.5,6-0.9c0.1-0.9-4-3.3-7-3.7c0.3-0.1,0.6-0.3,0.7-0.5
		C985.7,613.2,993.3,613.3,994.7,613z"/>
	<path id="XMLID_92_" fill-rule="evenodd" clip-rule="evenodd" fill="#FFF100" d="M1230.6,648.5c3-0.6,2.8-1.9-0.6-2.5
		c-2.1-0.4-8.5,0.3-10.6,1.2l0,0c-0.2-0.3-0.7-0.6-1.3-0.8c1.3-1.1,1.8-3.4,1.2-3.9c-1.3-1.2-4.8-1.4-6.6-0.1c-1,0.7,0,3,2,4.1
		c-0.3,0.1-0.6,0.2-0.8,0.3c-2-1-7.9-2.3-9.3-2.3c-3.4-0.1-4.8,1.1-2.4,2.3c1.5,0.7,8.2,1.4,11.1,1c0.1,0.2,0.2,0.3,0.3,0.5
		c-2.8,0.1-8.4,1.8-8.9,2.4c-1.2,1.2,1.2,2.2,4.8,1.9c2-0.2,5.1-1.9,5.7-3.1c0.1-0.1,0.2-0.2,0.3-0.3l0,0c0.1,0,0.3,0,0.5,0
		c0.2,0,0.3,0,0.5,0c-0.5,1.1,1.8,3.8,2.9,4.2c2.5,1,5.7,0.5,6-0.9c0.1-0.9-4-3.3-7-3.7c0.3-0.1,0.6-0.3,0.7-0.5
		C1221.6,648.7,1229.2,648.8,1230.6,648.5z"/>
	<path id="XMLID_89_" fill-rule="evenodd" clip-rule="evenodd" fill="#FFF100" d="M663.4,648.5c3-0.6,2.8-1.9-0.6-2.5
		c-2.1-0.4-8.5,0.3-10.6,1.2l0,0c-0.2-0.3-0.7-0.6-1.3-0.8c1.3-1.1,1.8-3.4,1.2-3.9c-1.3-1.2-4.8-1.4-6.6-0.1c-1,0.7,0,3,2,4.1
		c-0.3,0.1-0.6,0.2-0.8,0.3c-2-1-7.9-2.3-9.3-2.3c-3.4-0.1-4.8,1.1-2.4,2.3c1.5,0.7,8.2,1.4,11.1,1c0.1,0.2,0.2,0.3,0.3,0.5
		c-2.8,0.1-8.4,1.8-8.9,2.4c-1.2,1.2,1.2,2.2,4.8,1.9c2-0.2,5.1-1.9,5.7-3.1c0.1-0.1,0.2-0.2,0.3-0.3l0,0c0.1,0,0.3,0,0.5,0
		c0.2,0,0.3,0,0.5,0c-0.5,1.1,1.8,3.8,2.9,4.2c2.5,1,5.7,0.5,6-0.9c0.1-0.9-4-3.3-7-3.7c0.3-0.1,0.6-0.3,0.7-0.5
		C654.4,648.7,662,648.8,663.4,648.5z"/>
	<path id="XMLID_90_" fill-rule="evenodd" clip-rule="evenodd" fill="#FFF100" d="M386.9,619.1c3-0.6,2.8-1.9-0.6-2.5
		c-2.1-0.4-8.5,0.3-10.6,1.2l0,0c-0.2-0.3-0.7-0.6-1.3-0.8c1.3-1.1,1.8-3.4,1.2-3.9c-1.3-1.2-4.8-1.4-6.6-0.1c-1,0.7,0,3,2,4.1
		c-0.3,0.1-0.6,0.2-0.8,0.3c-2-1-7.9-2.3-9.3-2.3c-3.4-0.1-4.8,1.1-2.4,2.3c1.5,0.7,8.2,1.4,11.1,1c0.1,0.2,0.2,0.3,0.3,0.5
		c-2.8,0.1-8.4,1.8-8.9,2.4c-1.2,1.2,1.2,2.2,4.8,1.9c2-0.2,5.1-1.9,5.7-3.1c0.1-0.1,0.2-0.2,0.3-0.3l0,0c0.1,0,0.3,0,0.5,0
		c0.2,0,0.3,0,0.5,0c-0.5,1.1,1.8,3.8,2.9,4.2c2.5,1,5.7,0.5,6-0.9c0.1-0.9-4-3.3-7-3.7c0.3-0.1,0.6-0.3,0.7-0.5
		C377.9,619.3,385.5,619.4,386.9,619.1z"/>
	<path id="XMLID_91_" fill-rule="evenodd" clip-rule="evenodd" fill="#FFF100" d="M110.7,667.4c3-0.6,2.8-1.9-0.6-2.5
		c-2.1-0.4-8.5,0.3-10.6,1.2l0,0c-0.2-0.3-0.7-0.6-1.3-0.8c1.3-1.1,1.8-3.4,1.2-3.9c-1.3-1.2-4.8-1.4-6.6-0.1c-1,0.7,0,3,2,4.1
		c-0.3,0.1-0.6,0.2-0.8,0.3c-2-1-7.9-2.3-9.3-2.3c-3.4-0.1-4.8,1.1-2.4,2.3c1.5,0.7,8.2,1.4,11.1,1c0.1,0.2,0.2,0.3,0.3,0.5
		c-2.8,0.1-8.4,1.8-8.9,2.4c-1.2,1.2,1.2,2.2,4.8,1.9c2-0.2,5.1-1.9,5.7-3.1c0.1-0.1,0.2-0.2,0.3-0.3l0,0c0.1,0,0.3,0,0.5,0
		c0.2,0,0.3,0,0.5,0c-0.5,1.1,1.8,3.8,2.9,4.2c2.5,1,5.7,0.5,6-0.9c0.1-0.9-4-3.3-7-3.7c0.3-0.1,0.6-0.3,0.7-0.5
		C101.7,667.6,109.3,667.7,110.7,667.4z"/>
	<path fill="#F6F2F2" d="M821.1,93.7c0-4.9-20.4-14.8-39.9-9.6c-5.2-3.8-14.2-6.4-24.5-6.4c-0.6,0-1.2,0-1.7,0
		c-0.4-0.7-0.8-1.3-1.3-2c-4.9-6.5-15.4-11-27.5-11c-5.9,0-11.4,1.1-16,2.9c-4.3-3.3-10.8-5.5-18.1-5.5c-1,0-2,0.1-3,0.1
		c-0.6,0-1.1,0.1-1.7,0.2c-0.3-1.5-0.9-2.9-1.9-4.3c-3.7-5.3-12.1-9-21.8-9c-1.4,0-2.8,0.1-4.2,0.2c-0.5,0.1-0.9,0.1-1.4,0.2
		c-0.5-1.7-1.4-3.3-2.5-4.7c-5.3-6.9-16.4-11.6-29.3-11.6c-11.3,0-21.2,3.6-27,9.2c-3.4-0.8-7-1.3-10.9-1.3
		c-15.9,0-28.9,7.7-30.4,17.5c-0.7,0-1.4,0-2.2,0c-17.3,0-31.7,7.8-34.9,18.2c-2.9,0.6-5.5,1.4-7.8,2.3c-3.9-0.9-8.4-1.5-13-1.5
		c-13.6,0-25,4.4-28.2,10.4c-14.5,0.7-26.2,2.8-31.1,5.6H821.1z"/>
	<path fill="#F6F2F2" d="M1259.6,239.4c-1.6-3-5.6-5.2-10.4-5.2c-1.5,0-2.8,0.2-4.1,0.6c-1.8-2.7-5.6-4.6-10.1-4.6
		c-1.1,0-2.1,0.1-3,0.3c-0.2-0.1-0.4-0.1-0.6-0.2c0.1-0.5,0.2-1,0.2-1.5c0-5.1-5.8-9.3-13-9.3c-1.2,0-2.4,0.1-3.5,0.4
		c-3.3-5.6-11-9.6-20.1-9.6c-3.9,0-7.5,0.7-10.7,2c-7.6-4.3-16.2-6-25.1-5.8c0.9-1.7,1.5-3.6,1.5-5.6c0-8.5-9.7-15.5-21.7-15.5
		c-3.5,0-6.7,0.6-9.6,1.6c-4.8-11.9-20.2-20.7-38.4-20.7c-17.5,0-32.3,8-37.8,19.1c-0.7-0.1-1.5-0.1-2.2-0.1
		c-7.8,0-14.6,2.9-18.4,7.3c-3.6-1.9-8-3-12.8-3c-10.2,0-18.7,4.9-21.3,11.6c-8.1,1.5-15.3,4.7-21.3,8.8c-3.7-2.1-8.4-3.3-13.5-3.3
		c-11.1,0-20.2,5.8-21.8,13.4c-1.6-0.5-3.4-0.8-5.4-0.8c-5.8,0-10.8,2.7-12.4,6.5c-1.4-0.4-2.9-0.7-4.4-0.7c-6,0-10.9,3.4-11.1,7.6
		c-0.2,0-0.4,0.1-0.6,0.1c-1.5-0.2-3.1-0.3-4.8-0.3c-7.8,0-14.7,2.6-19.1,6.7H1259.6z"/>
	<path fill="#F6F2F2" d="M318.5,221.1c-3.4,0-6.6,0.6-9.5,1.5c-1.1-5.9-8.6-10.4-17.6-10.4c-6.1,0-11.5,2.1-14.7,5.2
		c-0.7-5.1-7.1-9.1-14.8-9.1c-3.1,0-6.1,0.7-8.5,1.8c-5.6-5.5-14.8-7.4-24.8-6.5c-1.4-9.2-12.5-16.5-26.3-17.1
		c0.1-0.6,0.1-1.2,0.1-1.8c0-9.5-11.5-17.3-25.6-17.3c-7.4,0-14.1,2.1-18.8,5.5c-4.2-4.8-11.9-8-20.7-8c-13.1,0-23.7,7.1-24,15.9
		c-2.4-0.6-4.9-0.9-7.5-0.9c-12.7,0-23,7-23,15.5c0,3.6,1.8,6.8,4.8,9.5c-5.3,2.7-8.7,7-8.7,11.8c0,1.4,0.3,2.7,0.8,3.9
		c-6.5,1.2-11.4,5.2-11.4,10h269.9C335.6,225.1,327.8,221.1,318.5,221.1z"/>
</g>
<g id="OBJECTS">
</g>
<g id="DESIGNED_BY_FREEPIK">
</g>
</svg>
